<svg aria-hidden="true" style="position:absolute;width:0;height:0;overflow:hidden" xmlns="http://www.w3.org/2000/svg"><defs><symbol id="icon-antena" viewBox="0 0 32 32"><path fill="#212121" style="fill:var(--color1, #212121)" d="m30.773 22.098-8.443-8.505.937-4.616c.225.09.485.144.758.146h.033a2.16 2.16 0 1 0-2.029-1.42l-.005-.015-4.96.606L8.973.161a.53.53 0 0 0-.376-.16.536.536 0 0 0-.373.155L6.712 1.66a.535.535 0 0 0 0 .754l.814.825C6.383 5.301 5.71 7.761 5.71 10.378c0 4.106 1.656 7.824 4.336 10.525l-.001-.001a.49.49 0 0 0 .146.097 2.986 2.986 0 0 0-.052.546v6.188h-6.4a2.669 2.669 0 0 0-2.667 2.666v1.067c0 .295.239.534.534.534H26.14a.534.534 0 0 0 .533-.534v-1.067a2.67 2.67 0 0 0-2.666-2.666h-6.4v-2.742a14.784 14.784 0 0 0 10.166-1.502l-.077.039.818.823a.534.534 0 0 0 .376.16.536.536 0 0 0 .373-.155l1.512-1.504a.535.535 0 0 0 0-.754zM23.28 6.233a1.067 1.067 0 1 1 .752 1.822h-.004a1.066 1.066 0 0 1-.747-1.822h-.002zm-1.256 3.504-.598 2.946-1.175-1.183 1.774-1.763zm-.605-.902-1.92 1.909-1.486-1.493 3.406-.416zM24.004 28.8a1.6 1.6 0 0 1 1.6 1.6v.534H2.138V30.4a1.6 1.6 0 0 1 1.6-1.6h20.267zm-7.466-2.134v1.067h-5.334v-1.067h5.334zM11.204 25.6v-4.053c0-1.294 1.196-2.346 2.667-2.346s2.667 1.053 2.667 2.346V25.6h-5.334zm6.4-1.696v-2.357c0-1.882-1.675-3.413-3.733-3.413h-.058c-1.353 0-2.54.707-3.213 1.771l-.009.016a13.817 13.817 0 0 1-3.812-9.55c0-2.314.567-4.496 1.569-6.414l-.036.077 18.602 18.709c-1.823.947-3.979 1.502-6.266 1.502-1.079 0-2.128-.124-3.136-.357l.093.018zm11.289-.684L7.836 2.039l.754-.752 7.935 7.98c.004 0 .006.007.01.01l13.114 13.191-.757.752z"/><path fill="#2196f3" style="fill:var(--color2, #2196f3)" d="M13.876 20.267h-.007a1.6 1.6 0 0 0-.003 3.2h.007a1.6 1.6 0 0 0 .002-3.2zm.373 1.978a.534.534 0 1 1-.378-.912.533.533 0 0 1 .374.911h.005z"/></symbol><symbol id="icon-astronaut" viewBox="0 0 32 32"><path fill="#2196f3" style="fill:var(--color2, #2196f3)" d="M31.974 4.524a.535.535 0 0 0-.427-.362h-.003l-1.911-.278-.855-1.731c-.179-.365-.777-.365-.956 0l-.855 1.731-1.911.278a.534.534 0 0 0-.296.91l1.383 1.348-.326 1.903a.532.532 0 0 0 .774.562l1.709-.899 1.709.899a.534.534 0 0 0 .773-.565v.003l-.326-1.903 1.383-1.348a.535.535 0 0 0 .134-.55l.001.004zm-2.463 1.327a.53.53 0 0 0-.153.472l.191 1.114-1-.526a.525.525 0 0 0-.501.001l.003-.001-1 .526.191-1.114a.53.53 0 0 0-.152-.472l-.811-.79 1.119-.162a.532.532 0 0 0 .402-.292l.5-1.013.5 1.013a.532.532 0 0 0 .402.292l1.119.162-.809.79zm-3.377 14.671h-1.067v1.067h1.067v-1.067zm0 2.134h-1.067v1.066h1.067v-1.066zm1.066-1.067h-1.067v1.067H27.2v-1.067zm-2.133 0H24v1.067h1.067v-1.067zm-2.667 4.8h-1.067v1.067H22.4v-1.067zm0 2.134h-1.067v1.067H22.4v-1.067zm1.067-1.067H22.4v1.067h1.067v-1.067zm-2.133 0h-1.067v1.067h1.067v-1.067zM16 24.256h-1.066v1.067H16v-1.067zm0 2.133h-1.066v1.067H16v-1.067zm1.067-1.067H16v1.067h1.067v-1.067zm-2.133 0h-1.067v1.067h1.067v-1.067zm-9.067-19.2H4.801v1.066h1.066V6.122zm0 2.134H4.801v1.066h1.066V8.256zm1.066-1.067H5.866v1.067h1.066V7.189zm-2.133 0H3.733v1.067H4.8V7.189z"/><path fill="#212121" style="fill:var(--color1, #212121)" d="M24.715 14.16a1.774 1.774 0 0 0-1.179-.703l-.009-.001a1.769 1.769 0 0 0-1.344.355l.004-.003-1.253.96-1.898 1.417-1.358-.541c2.421-1.086 4.113-3.508 4.113-6.32 0-3.823-3.122-6.934-6.961-6.934S7.869 5.5 7.869 9.324c0 1.386.415 2.674 1.12 3.759l-2.768-.024c-.009 0-.016.005-.023.005a.511.511 0 0 0-.159.033l.004-.001c-.013.005-.026.007-.038.013-.006.003-.013.003-.019.006l-3.233 1.596-.001.001-1.893.91a.5.5 0 0 0-.065.036l.001-.001a1.782 1.782 0 0 0-.594 2.306l-.005-.01c.22.424.592.742 1.043.885l.013.003a1.772 1.772 0 0 0 1.388-.133l-.009.005 1.388-.738 2.264-1.169 1.357-.008-5.442 5.415-.001.001-1.339 1.333a1.643 1.643 0 0 0-.491 1.173v.005a1.668 1.668 0 0 0 1.667 1.664h.002a1.67 1.67 0 0 0 1.18-.485l1.314-1.309 1.741-1.3.901.897L4.07 27.28a1.643 1.643 0 0 0-.491 1.173v.004a1.662 1.662 0 0 0 1.666 1.664h.003a1.67 1.67 0 0 0 1.18-.485l4.488-4.472c.007-.006.016-.009.022-.016l5.166-5.658 3.471.494a.474.474 0 0 0 .262-.032c.017-.006.032-.015.049-.023.019-.01.039-.015.058-.027l3.213-2.133c.012-.008.018-.021.029-.03.013-.01.029-.014.041-.026l1.271-1.191c.348-.326.564-.787.564-1.3 0-.4-.132-.769-.355-1.066l.003.005zM2.13 17.77a.706.706 0 0 1-.564.05l.005.001a.717.717 0 0 1-.215-1.258l.002-.001 1.314-.632.316.924.133.389-.992.527zm3.497-1.828-1.548.8-.255-.746-.184-.537 2.027-1.001-.04 1.484zm15.1-6.62c0 .918-.219 1.785-.599 2.56l-4.181-1.899a1.865 1.865 0 0 0-.782-1.384l-.006-.004 1.464-4.861c2.377.757 4.104 2.975 4.104 5.588zm-11.789 0c0-3.235 2.644-5.867 5.894-5.867.253 0 .5.022.745.053l-1.432 4.753c-.019 0-.037-.006-.057-.006h-.001a1.872 1.872 0 0 0-1.872 1.867 1.873 1.873 0 0 0 1.872 1.867h.001c.695 0 1.295-.383 1.618-.944l3.863 1.755a5.891 5.891 0 0 1-4.737 2.39c-3.25 0-5.894-2.632-5.894-5.867zm5.957.8c0 .441-.362.8-.806.8h-.001a.804.804 0 0 1-.804-.8c0-.441.361-.8.806-.8s.806.359.806.8zM2.464 25.146a.606.606 0 0 1-.855.001.591.591 0 0 1 0-.844l.962-.959.852.848-.959.954zm3.214 3.734a.606.606 0 0 1-.855.001.591.591 0 0 1 0-.844l.963-.959.852.848-.96.955zm3.482-3.469-.001.001-1.765 1.76-.852-.848 1.765-1.757a.527.527 0 0 0 .09-.136c.007-.014.02-.026.026-.04.016-.041.019-.085.026-.128.003-.025.014-.048.014-.073 0-.035-.013-.07-.02-.105-.006-.032-.006-.064-.019-.096a.536.536 0 0 0-.092-.138c-.01-.012-.014-.026-.025-.038h-.001l-.001-.002-1.607-1.6c-.017-.017-.039-.024-.058-.038a.491.491 0 0 0-.084-.056l-.003-.001a.527.527 0 0 0-.09-.031l-.003-.001a.502.502 0 0 0-.101-.02h-.025a.603.603 0 0 0-.075.005h.003c-.036.005-.069.009-.104.021s-.064.027-.094.045c-.02.011-.043.015-.061.029l-1.774 1.324-.901-.897 2.399-2.386 4.36 4.289-.928.919zm6.819-7.017c-.016-.002-.03.004-.046.003l-.027-.001a.562.562 0 0 0-.092.008h.003a.484.484 0 0 0-.187.07l.002-.001a.492.492 0 0 0-.083.061c-.013.011-.028.016-.04.029l-4.698 5.146-4.328-4.256 2.833-2.818a.535.535 0 0 0-.378-.911h-.002l-2.219.013.028-1.607 3.104.027a6.928 6.928 0 0 0 4.978 2.101h.003c.438 0 .864-.046 1.28-.122.04.032.08.064.129.085l2.41.96.152.758.178.886-3.003-.427zm4.041.178-.313-1.558 1.446-1.08.946 1.257-2.08 1.381zm3.753-2.831-.837.785-.931-1.236.831-.637a.735.735 0 0 1 .543-.143.718.718 0 0 1 .621.71.71.71 0 0 1-.226.521z"/><path fill="#212121" style="fill:var(--color1, #212121)" d="m13.602 18.544-2.143-2.134a.53.53 0 0 0-.752 0l-2.143 2.133a.535.535 0 0 0 0 .756l2.142 2.134a.53.53 0 0 0 .752 0l2.143-2.134a.532.532 0 0 0 0-.756zm-2.519 1.759-1.387-1.381 1.386-1.381 1.387 1.381-1.387 1.381zm6.081-15.232-.258 1.036c.071.018 1.738.452 1.738 2.149h1.067c0-2.017-1.666-2.965-2.547-3.184zm2.547 4.251h-1.067v1.066h1.067V9.322z"/></symbol><symbol id="icon-client-1" viewBox="0 0 32 32"><path fill="#afb1b8" style="fill:var(--color3, #afb1b8)" d="m11.472 9.057 2.116 2.003-3.927-.002v9.717h10.264V17.06l2.113 2.001V9.058H11.472zm8.36 7.767-5.998-5.678h5.998v5.678zm-1.863 2.528h-6.685v-6.535h.472v6.092h6.212v.442zm-5.106 2.716-.247.509-.247-.509h-.207l.36.678v.395h.187v-.395l.36-.678h-.206zm.311 1.073.087-.25h.416l.088.25h.195l-.406-1.073h-.168l-.405 1.073h.194zm.294-.845.155.445h-.311l.155-.445zm.984.419a.243.243 0 0 0-.04.134v.002c0 .091.032.164.095.22s.149.084.255.084a.445.445 0 0 0 .274-.086l.06.072h.208l-.158-.187a.537.537 0 0 0 .093-.325h-.155a.43.43 0 0 1-.045.197l-.207-.245.073-.053a.388.388 0 0 0 .11-.111l.001-.001a.238.238 0 0 0 .034-.122v-.006a.222.222 0 0 0-.075-.166.27.27 0 0 0-.181-.07h-.011.001c-.086 0-.155.025-.206.074s-.077.115-.077.199c0 .034.008.07.024.107s.046.081.088.134a.638.638 0 0 0-.16.148zm.484.237a.27.27 0 0 1-.169.06h-.009a.178.178 0 0 1-.12-.047.16.16 0 0 1-.048-.115v-.006c0-.057.03-.109.088-.153l.023-.016.234.277zm-.192-.475c-.051-.063-.076-.114-.076-.155 0-.036.011-.066.031-.089a.105.105 0 0 1 .079-.036H14.787c.03 0 .056.012.076.03.021.02.032.044.032.072v.004c0 .04-.018.076-.046.1l-.023.018-.082.056zm1.746.583a.388.388 0 0 0 .127-.268h-.186c-.01.077-.033.131-.07.164s-.092.049-.165.049c-.08 0-.141-.03-.183-.091s-.062-.149-.062-.266v-.095c.001-.115.023-.201.066-.26s.106-.089.187-.089c.07 0 .123.017.159.051s.059.09.068.167h.186c-.012-.117-.054-.208-.126-.273s-.168-.097-.286-.097a.433.433 0 0 0-.233.063.414.414 0 0 0-.153.176l-.001.003a.622.622 0 0 0-.054.255v.013-.001.1c.002.099.02.185.055.26s.086.132.15.173c.065.04.141.06.226.06.122 0 .22-.032.294-.096zm1.096-.15a.668.668 0 0 0 .055-.277V22.563a.651.651 0 0 0-.058-.268l.002.004a.413.413 0 0 0-.155-.18l-.002-.001c-.068-.042-.145-.063-.232-.063s-.165.021-.233.064a.414.414 0 0 0-.157.184.646.646 0 0 0-.055.264v.014-.001.06c.001.103.019.193.056.272s.09.139.158.182a.435.435 0 0 0 .233.063c.088 0 .166-.021.233-.063s.12-.104.156-.183zm-.199-.607a.47.47 0 0 1 .068.274v.056c0 .121-.022.213-.067.276s-.107.095-.19.095h-.008a.222.222 0 0 1-.183-.096v-.001a.463.463 0 0 1-.069-.273v-.062a.46.46 0 0 1 .069-.267.22.22 0 0 1 .182-.095h.008a.22.22 0 0 1 .191.095z"/></symbol><symbol id="icon-client-2" viewBox="0 0 32 32"><path fill="#afb1b8" style="fill:var(--color3, #afb1b8)" d="M15.129 8.735h-.041c-.063-.004-.127-.005-.19-.007h-.137c-.12 0-.242.003-.363.009l-.014-.001-.014.001h.001a8.505 8.505 0 0 0-3.226.832l.051-.022-.13.063v6.684l.306-.104c.268-.092.554-.175.849-.252.73-.195 1.571-.313 2.437-.324h.007v.878a8.532 8.532 0 0 0-.322.009h-.025a9.848 9.848 0 0 0-1.948.304l.068-.015a9.488 9.488 0 0 0-2.289.898l.049-.025V9.09a8.778 8.778 0 0 1 2.288-.942l.062-.014a8.838 8.838 0 0 1 2.213-.286h.131c.154.004.305.011.446.021.372.026.741.085 1.103.176v.864a6.512 6.512 0 0 0-1.047-.16l-.022-.001-.022-.002c-.075-.006-.149-.013-.219-.013zm1.521.883c.192.015.39.022.591.022a9.49 9.49 0 0 0 2.395-.314l-.066.015a9.563 9.563 0 0 0 2.288-.898l-.049.025v8.42a8.778 8.778 0 0 1-2.288.942l-.062.014a8.8 8.8 0 0 1-2.213.285h-.056a6.772 6.772 0 0 1-1.672-.208l.047.01V9.456a7.036 7.036 0 0 0 1.086.163zm4.285.066-.305.103c-.281.095-.565.179-.849.254-.761.204-1.635.322-2.536.325h-.002c-.199 0-.383-.005-.56-.017l-.244-.016v6.876l.209.018c.194.017.394.026.596.026a8.08 8.08 0 0 0 2.055-.272l-.057.013a8.325 8.325 0 0 0 1.612-.583l-.05.022.13-.063V9.684zM10.789 20.592a.45.45 0 0 0-.324-.138h-.017.001-.007a.519.519 0 0 0-.193.038l.003-.001a.444.444 0 0 0-.25.251l-.001.003a.493.493 0 0 0-.035.19v1.145a.541.541 0 0 0 .045.235.406.406 0 0 0 .272.235.666.666 0 0 0 .171.024.484.484 0 0 0 .475-.482v-.128h-.3v.109a.261.261 0 0 1-.018.097l.001-.002a.194.194 0 0 1-.043.065.208.208 0 0 1-.125.044l-.018.001a.152.152 0 0 1-.123-.062.268.268 0 0 1-.04-.142v-.012.001-1.068a.362.362 0 0 1 .037-.171.155.155 0 0 1 .147-.069h-.001.006a.16.16 0 0 1 .128.064c.031.04.05.092.05.147V21.072h.296V20.95a.53.53 0 0 0-.038-.199l.001.004a.457.457 0 0 0-.1-.161zm1.778-.012a.52.52 0 0 0-.519-.094.47.47 0 0 0-.273.251l-.001.003a.543.543 0 0 0-.044.222v1.098a.529.529 0 0 0 .044.225.496.496 0 0 0 .453.283c.131 0 .25-.049.341-.129h-.001a.466.466 0 0 0 .113-.154.529.529 0 0 0 .044-.225v-1.109a.527.527 0 0 0-.045-.215l.001.003a.488.488 0 0 0-.113-.16zm-.14 1.48.001.017a.197.197 0 0 1-.06.142.217.217 0 0 1-.282-.001.197.197 0 0 1-.059-.16v.001-1.099l-.001-.017c0-.056.023-.106.06-.142a.217.217 0 0 1 .282.001c.037.036.06.086.06.142l-.001.018v-.001 1.099zm2.476.491v-2.08h-.288l-.378 1.101h-.005l-.381-1.101h-.285v2.079h.297v-1.265h.005l.291.894h.148l.293-.894h.005v1.265h.297zm1.688-1.934a.42.42 0 0 0-.168-.114.632.632 0 0 0-.204-.032h-.453v2.08h.296v-.812h.152a.537.537 0 0 0 .267-.057.436.436 0 0 0 .162-.157l.001-.002a.51.51 0 0 0 .068-.181c.01-.065.016-.141.016-.218v-.02.001c.003-.1-.007-.2-.029-.297a.447.447 0 0 0-.109-.191zm-.153.634a.252.252 0 0 1-.028.11l.001-.002a.163.163 0 0 1-.075.072h-.001a.296.296 0 0 1-.124.027h-.016.001-.135v-.707h.167a.29.29 0 0 1 .121.027l-.002-.001a.164.164 0 0 1 .069.076v.001a.31.31 0 0 1 .026.116v.138c0 .048.003.098 0 .143h-.003zm1.557-.78h-.243l-.458 2.08h.296l.087-.447h.404l.087.447h.296l-.469-2.08zm-.274 1.35.146-.754h.005l.145.754h-.296zm2.188-.097h-.005l-.447-1.253h-.285v2.08h.296V21.3h.006l.453 1.25h.279v-2.079h-.296v1.253zm1.811-1.253-.238.827h-.006l-.238-.827h-.313l.407 1.201v.879h.296v-.879l.407-1.201h-.314zM9.962 23.138h.143v.401h.097v-.401h.142v-.082h-.382v.082zm1.201-.082-.187.483h.103l.04-.11h.193l.041.11h.106l-.192-.483h-.103zm-.015.292.066-.179.066.179h-.131zm1.202.013h.112v.062a.19.19 0 0 1-.115.041h-.007a.123.123 0 0 1-.096-.046.204.204 0 0 1-.036-.115v-.011.001c0-.107.046-.161.139-.161l.01-.001c.048 0 .088.033.099.077v.001l.095-.019c-.021-.094-.088-.142-.205-.142h-.006a.246.246 0 0 0-.163.062.236.236 0 0 0-.069.187v-.001.011c0 .065.024.124.062.17a.233.233 0 0 0 .168.071h.016-.001.008a.289.289 0 0 0 .197-.077v-.19h-.209v.081zm1.212-.305h-.098v.483h.338v-.082h-.24v-.401zm1.025 0h-.098v.483h.098v-.483zm1.001.322-.198-.322h-.095v.483h.091v-.315l.194.315h.097v-.483h-.09v.323zm.906-.052h.241v-.082h-.241v-.106h.259v-.082h-.357v.483h.366v-.082h-.269v-.131zm2.196-.08h-.19v-.19h-.097v.483h.097v-.211h.19v.211h.097v-.483h-.097v.191zm.912.08h.241v-.082h-.241v-.106h.26v-.082h-.356v.483h.366v-.082h-.269v-.131zm1.235 0c.084-.013.127-.058.127-.134l.001-.014a.116.116 0 0 0-.048-.094.274.274 0 0 0-.122-.029l-.02.001h.001-.205v.483h.097v-.202h.027c.019 0 .037.004.053.011h-.001a.103.103 0 0 1 .034.035l.105.153h.116l-.059-.094a.345.345 0 0 0-.106-.115l-.001-.001zm-.098-.067h-.072v-.121h.076l.02-.001c.028 0 .055.005.08.013h-.002a.064.064 0 0 1 .021.047c0 .021-.01.039-.025.051a.26.26 0 0 1-.081.012l-.019-.001h.001zm1.03.067h.24v-.082h-.24v-.106h.26v-.082h-.357v.483h.366v-.082h-.269v-.131z"/></symbol><symbol id="icon-client-3" viewBox="0 0 32 32"><path fill="#afb1b8" style="fill:var(--color3, #afb1b8)" d="M10.991 21.766c.005 0 .01.001.014.003l.012.007.066.063a.543.543 0 0 1-.185.12.713.713 0 0 1-.246.043h-.018.001a.688.688 0 0 1-.247-.04.511.511 0 0 1-.306-.284l-.001-.003a.565.565 0 0 1-.042-.218v-.019c0-.154.067-.292.173-.387a.602.602 0 0 1 .197-.114.782.782 0 0 1 .255-.04h.016c.079 0 .155.013.225.038l-.005-.001a.657.657 0 0 1 .177.101l-.055.067a.04.04 0 0 1-.014.012.038.038 0 0 1-.019.005h-.003a.048.048 0 0 1-.024-.007l-.029-.018-.041-.023a.497.497 0 0 0-.127-.04h-.003a.517.517 0 0 0-.091-.007h-.014a.536.536 0 0 0-.18.031l.004-.001a.432.432 0 0 0-.144.085.405.405 0 0 0-.127.305V21.457a.45.45 0 0 0 .035.176l-.001-.003a.382.382 0 0 0 .228.217.509.509 0 0 0 .169.029.855.855 0 0 0 .101-.006.399.399 0 0 0 .218-.093h-.001a.047.047 0 0 1 .031-.011zm1.901-.316v.007a.534.534 0 0 1-.046.219l.001-.003a.479.479 0 0 1-.123.172.563.563 0 0 1-.191.112l-.004.001a.799.799 0 0 1-.506-.002l.006.002a.585.585 0 0 1-.194-.114h.001a.511.511 0 0 1-.124-.171l-.001-.003a.572.572 0 0 1 .002-.449l-.001.004a.522.522 0 0 1 .125-.175.584.584 0 0 1 .193-.11.77.77 0 0 1 .506.001l-.006-.002c.073.026.139.064.194.113s.097.109.124.172c.03.072.046.148.044.224zm-.173 0v-.009a.475.475 0 0 0-.033-.173l.001.003a.37.37 0 0 0-.224-.217l-.003-.001a.599.599 0 0 0-.368.001l.004-.001a.378.378 0 0 0-.139.085.356.356 0 0 0-.088.131l-.001.002a.513.513 0 0 0 .002.361l-.001-.004a.37.37 0 0 0 .226.217l.003.001a.595.595 0 0 0 .364 0 .378.378 0 0 0 .139-.084.376.376 0 0 0 .088-.134.457.457 0 0 0 .031-.179zm1.47.188.018.04a.49.49 0 0 1 .041-.081l-.001.002.421-.664c.008-.011.016-.019.024-.021s.019-.004.029-.004h.13v1.081h-.147v-.828l-.001-.019.001-.02v.001l-.424.674a.062.062 0 0 1-.024.024.071.071 0 0 1-.036.009H14.194a.074.074 0 0 1-.036-.009.062.062 0 0 1-.024-.024l-.436-.678v.867h-.142V20.91h.13c.01 0 .02.001.03.004h-.001c.01.005.018.012.023.021l.43.665a.222.222 0 0 1 .021.037l.001.001zm1.583-.054v.405h-.164V20.91h.367a.787.787 0 0 1 .205.024.41.41 0 0 1 .145.067.275.275 0 0 1 .081.104l.001.002c.02.044.029.091.028.138v.007a.301.301 0 0 1-.119.239l-.001.001a.414.414 0 0 1-.146.071.678.678 0 0 1-.185.025h-.014l-.199-.003zm0-.116h.199a.463.463 0 0 0 .128-.016.272.272 0 0 0 .093-.047h-.001a.208.208 0 0 0 .076-.16v-.015a.177.177 0 0 0-.017-.077v.001a.206.206 0 0 0-.057-.073.35.35 0 0 0-.195-.059l-.027.001h.001-.199v.445zm2.212.522h-.132a.065.065 0 0 1-.034-.01.067.067 0 0 1-.022-.025l-.112-.261h-.562l-.116.261a.061.061 0 0 1-.056.035h-.132l.494-1.081h.171l.501 1.081zm-.815-.401h.464l-.196-.44a.766.766 0 0 1-.037-.101l-.019.056a.556.556 0 0 1-.018.046l-.194.439zm1.527-.674c.01.005.018.011.024.019l.72.815v-.839h.147v1.081h-.084a.066.066 0 0 1-.032-.007.086.086 0 0 1-.026-.02l-.719-.814.001.019-.001.019v-.001.803h-.147v-1.081h.087c.01 0 .02.002.03.005zm2.105.645v.429h-.165v-.429l-.455-.651h.151c.012 0 .023.003.032.009a.083.083 0 0 1 .022.024l.285.42.03.05a.368.368 0 0 1 .021.046l.021-.047a.343.343 0 0 1 .028-.049l.281-.423a.115.115 0 0 1 .021-.023.052.052 0 0 1 .032-.011h.152l-.456.654zm-6.694-2.464c.072.008.144.014.217.02 1.111-.432 2.05-1.138 2.701-2.031s.984-1.933.959-2.99l-1.224-1.063c.249 1.125.132 2.288-.336 3.359s-1.271 2.008-2.318 2.705z"/><path fill="#afb1b8" style="fill:var(--color3, #afb1b8)" d="m13.671 19.047.033.006c1.118-.695 1.97-1.666 2.447-2.786s.555-2.339.226-3.499l-1.743-1.515c.705 1.245.989 2.639.818 4.018s-.788 2.689-1.781 3.775zm5.912-3.703c-.296 1.161-1.016 2.209-2.051 2.987a6.52 6.52 0 0 1-.938.591l-.037.017c.843-.215 1.618-.596 2.266-1.113s1.149-1.156 1.467-1.868l-.707-.614z"/><path fill="#afb1b8" style="fill:var(--color3, #afb1b8)" d="m19.305 15.173-1.006-.875c-.019.997-.346 1.972-.945 2.822s-1.45 1.546-2.463 2.015h.005c.226 0 .451-.012.676-.035.947-.336 1.784-.87 2.435-1.556s1.098-1.5 1.299-2.371zm-5.489-4.559-1.201-1.045c-1.073.36-1.997.994-2.649 1.818s-1.003 1.8-1.006 2.8c.004 1.105.432 2.177 1.217 3.047s1.88 1.487 3.114 1.755c1.101-1.166 1.746-2.607 1.841-4.113s-.366-2.999-1.315-4.263zm8.264 4.398c-.004-1.311-.606-2.567-1.672-3.494s-2.513-1.449-4.022-1.453h-.012a6.4 6.4 0 0 0-2.072.343l.045-.013 7.352 6.389c.24-.52.38-1.129.38-1.771z"/></symbol><symbol id="icon-client-4" viewBox="0 0 32 32"><path fill="#afb1b8" style="fill:var(--color3, #afb1b8)" d="M7.289 13.314h-.001c-.724 0-1.311.521-1.311 1.165v.001c0 .643.587 1.165 1.311 1.165h.001c.724 0 1.311-.522 1.311-1.165v-.001c0-.644-.587-1.165-1.311-1.165zm9.676-.372c-.002-.894-.402-1.75-1.113-2.382s-1.675-.988-2.68-.99c-1.006.002-1.97.357-2.681.989s-1.112 1.489-1.114 2.383v4.928s7.588-.751 7.589-4.927v-.001zM3.321 19.487c.002.622.281 1.218.775 1.657s1.165.687 1.864.689c.699-.002 1.37-.25 1.864-.689s.773-1.035.775-1.657v-3.429s-5.279.523-5.279 3.428zm2.639.614a.75.75 0 0 1-.384-.104.638.638 0 0 1-.253-.272l-.002-.004a.544.544 0 0 1-.038-.359l-.001.004c.027-.119.092-.229.189-.315a.717.717 0 0 1 .489-.18c.095 0 .186.017.27.048l-.005-.002c.127.047.234.125.31.226a.567.567 0 0 1 .065.577.62.62 0 0 1-.149.199l-.001.001a.752.752 0 0 1-.49.181h-.001v-.002zm5.336-.338h-.51v.526h-.265v-1.288h.839v.215h-.573v.333h.51v.214zm1.275-.089c0 .127-.022.238-.067.333a.508.508 0 0 1-.47.299h-.01.001a.515.515 0 0 1-.479-.293l-.001-.003a.746.746 0 0 1-.07-.318v-.012.001-.063c0-.127.023-.238.068-.334a.508.508 0 0 1 .481-.3c.108 0 .202.026.286.078.084.051.148.125.194.222s.069.207.069.333v.057zm-.268-.058a.545.545 0 0 0-.072-.308.236.236 0 0 0-.197-.105h-.011.001-.01a.237.237 0 0 0-.196.104l-.001.001a.53.53 0 0 0-.073.304v.063c0 .131.024.233.072.306s.118.109.209.109h.01a.232.232 0 0 0 .194-.104l.001-.001a.54.54 0 0 0 .072-.306v-.063zm1.129.335v-.007a.135.135 0 0 0-.053-.107.662.662 0 0 0-.191-.085 1.299 1.299 0 0 1-.226-.092l.008.004c-.146-.079-.219-.186-.219-.319 0-.069.019-.132.058-.186s.096-.098.169-.128a.652.652 0 0 1 .494.004.377.377 0 0 1 .227.348h-.266c0-.059-.018-.105-.056-.137s-.089-.049-.156-.049a.24.24 0 0 0-.151.042.13.13 0 0 0-.054.105v.003c0 .042.021.077.063.105s.105.055.187.079c.151.045.261.102.33.169s.104.151.104.251c0 .111-.042.199-.127.263s-.197.095-.34.095a.666.666 0 0 1-.271-.054.439.439 0 0 1-.186-.148l-.001-.001a.377.377 0 0 1-.063-.211v-.009h.266c0 .142.085.213.255.213a.255.255 0 0 0 .148-.038.127.127 0 0 0 .053-.103v-.005zm1.416-.735h-.394v1.073h-.266v-1.073h-.389v-.215h1.049v.215zm.926.515h-.509v.345h.598v.213H15v-1.288h.862v.215h-.596v.307h.51v.208zm.721.086h-.211v.472h-.265v-1.288h.479c.152 0 .27.034.352.102s.124.164.124.287a.395.395 0 0 1-.057.22.39.39 0 0 1-.17.139l-.003.001.278.526v.012h-.285l-.241-.471zm-.211-.215h.214a.226.226 0 0 0 .155-.05.183.183 0 0 0 .055-.131v-.01c0-.061-.017-.109-.052-.143s-.087-.052-.159-.052h-.213v.386zm1.608.233v.454h-.265v-1.288h.502c.097 0 .182.018.255.053a.397.397 0 0 1 .229.373c0 .126-.043.226-.13.299s-.206.109-.358.109h-.232zm0-.215h.237c.07 0 .124-.017.16-.049.037-.033.056-.08.056-.142v-.01a.212.212 0 0 0-.056-.144.206.206 0 0 0-.154-.06h-.243v.405zm1.678.111h-.509v.345h.598v.213h-.863v-1.288h.862v.215h-.596v.307h.51v.208zm1.232-.515h-.395v1.073h-.265v-1.073h-.389v-.215h1.049v.215zm.927.515h-.509v.345h.598v.213h-.863v-1.288h.862v.215h-.596v.307h.509v.208zm.721.086h-.211v.472h-.266v-1.288h.479c.152 0 .269.034.352.102s.124.164.124.287a.395.395 0 0 1-.057.22.39.39 0 0 1-.17.139l-.003.001.279.526v.012h-.285l-.241-.471zm-.212-.215h.214a.226.226 0 0 0 .155-.05.183.183 0 0 0 .055-.131v-.01c0-.061-.017-.109-.052-.143s-.087-.052-.158-.052h-.213v.386zm1.559.349v-.008a.134.134 0 0 0-.053-.107.662.662 0 0 0-.191-.085 1.299 1.299 0 0 1-.226-.092l.008.004c-.146-.079-.219-.186-.219-.319 0-.069.02-.132.058-.186s.096-.098.169-.128a.652.652 0 0 1 .494.004.377.377 0 0 1 .227.348h-.266c0-.059-.018-.105-.056-.137s-.089-.049-.156-.049a.24.24 0 0 0-.151.042.13.13 0 0 0-.054.105v.003c0 .042.021.077.063.105s.105.055.187.079c.151.045.261.102.33.169s.104.151.104.251c0 .111-.042.199-.127.263s-.198.095-.34.095a.666.666 0 0 1-.271-.054.439.439 0 0 1-.186-.148l-.001-.001a.377.377 0 0 1-.063-.211v-.009h.266c0 .142.085.213.255.213a.255.255 0 0 0 .148-.038.127.127 0 0 0 .053-.103v-.005z"/></symbol><symbol id="icon-client-5" viewBox="0 0 32 32"><path fill="#afb1b8" style="fill:var(--color3, #afb1b8)" d="M8.078 20.448a.431.431 0 0 1 .111.295l.001.022a.435.435 0 0 1-.041.184l.001-.003a.484.484 0 0 1-.131.168l-.001.001a.788.788 0 0 1-.446.138l-.054-.002h.002-.877v-1.869h.859a.776.776 0 0 1 .479.125l-.003-.002c.056.043.1.097.128.157s.042.127.038.193a.408.408 0 0 1-.1.286.476.476 0 0 1-.261.146.506.506 0 0 1 .296.16zm-1.029-.282h.367a.38.38 0 0 0 .233-.062.218.218 0 0 0 .062-.082l.001-.001a.197.197 0 0 0 .017-.082l-.001-.018v.001l.001-.016a.203.203 0 0 0-.018-.085l.001.001a.222.222 0 0 0-.061-.083.376.376 0 0 0-.211-.064l-.031.001h.001-.361v.491zm.637.717a.227.227 0 0 0 .067-.084l.001-.001a.216.216 0 0 0 .02-.09l-.001-.015v.001-.014a.222.222 0 0 0-.021-.093l.001.001a.25.25 0 0 0-.068-.086.399.399 0 0 0-.225-.068l-.026.001h.001-.385v.514h.39a.405.405 0 0 0 .246-.065zm2.146.369-.477-.731h-.18v.731h-.411v-1.869h.778a.81.81 0 0 1 .543.16l-.002-.002a.57.57 0 0 1 .186.416.562.562 0 0 1-.129.358l.001-.001a.645.645 0 0 1-.367.189H9.77l.509.747h-.447zm-.656-.985h.336c.233 0 .35-.094.35-.283v-.015a.259.259 0 0 0-.02-.1l.001.002a.276.276 0 0 0-.067-.097.385.385 0 0 0-.232-.077l-.034.001h.001-.34l.004.569zm2.903.608h-.819l-.145.376h-.431l.752-1.848h.466l.749 1.848h-.431l-.142-.376zm-.11-.282-.299-.789-.299.789h.598zm2.921.659h-.408l-.915-1.271v1.271h-.407v-1.869h.407l.915 1.279v-1.279h.408v1.869zm2.328-.447a.858.858 0 0 1-.369.33 1.269 1.269 0 0 1-.54.118h-.035.002-.726v-1.869h.76c.195 0 .381.042.548.119l-.008-.003a.838.838 0 0 1 .369.326 1.013 1.013 0 0 1 0 .981zm-.467-.045a.648.648 0 0 0 .18-.446.652.652 0 0 0-.18-.446.746.746 0 0 0-.513-.159h.002-.283v1.21h.283l.047.001c.176 0 .337-.06.466-.161l-.002.001zM12.334 8.986s5.264 1.82 5.153 4.453v4.454s-5.261-1.82-5.151-4.454l-.002-4.453zm9.843 7.865a7.638 7.638 0 0 1 3.345-1.128v-1.395c-1.383.488-2.557 1.374-3.345 2.523z"/><path fill="#afb1b8" style="fill:var(--color3, #afb1b8)" d="M21.579 17.271c.814-1.5 2.224-2.658 3.942-3.235v-4.018s-7.497 2.592-7.339 6.342v6.341s.334-.116.86-.333c0-.203 0-.407.024-.613.155-1.741 1.059-3.354 2.513-4.485z"/><path fill="#afb1b8" style="fill:var(--color3, #afb1b8)" d="M20.866 19.627c.039-.44.127-.875.262-1.298-.905.977-1.454 2.189-1.567 3.465-.011.12-.017.241-.02.365a21.05 21.05 0 0 0 1.563-.755l-.121.059a6.028 6.028 0 0 1-.117-1.836zm.299.022a5.798 5.798 0 0 0 .099 1.701l-.007-.037c2.048-1.122 4.35-2.856 4.261-4.952v-.183c-1.464.15-2.833.736-3.897 1.667a5.68 5.68 0 0 0-.455 1.782l-.002.022z"/></symbol><symbol id="icon-client-6" viewBox="0 0 32 32"><path fill="#afb1b8" style="fill:var(--color3, #afb1b8)" d="M16.128 15.217a.882.882 0 0 1-.182-.602v.003-.871c0-.267.06-.469.182-.608s.329-.208.623-.207c.277 0 .474.059.59.177a.716.716 0 0 1 .174.52v.205h-.495v-.207a.987.987 0 0 0-.015-.203.195.195 0 0 0-.071-.12.28.28 0 0 0-.158-.048l-.022.001h.001l-.021-.001a.303.303 0 0 0-.168.051l.001-.001a.236.236 0 0 0-.082.131v.002a.949.949 0 0 0-.02.198v.018-.001 1.056a.539.539 0 0 0 .063.296.235.235 0 0 0 .097.071l.002.001a.259.259 0 0 0 .129.016h-.001a.267.267 0 0 0 .176-.048l-.001.001a.214.214 0 0 0 .074-.127v-.001c.011-.07.017-.141.015-.212v-.214h.495v.196a.792.792 0 0 1-.172.549l.001-.002c-.114.129-.308.194-.593.194s-.501-.069-.622-.213zm2.063.01c-.125-.136-.188-.333-.188-.594v-.916c0-.259.063-.454.188-.587s.334-.199.628-.198c.291 0 .499.066.625.198s.189.328.189.587v.915c0 .259-.063.457-.191.594s-.334.204-.622.204-.501-.069-.628-.203zm.858-.22a.507.507 0 0 0 .059-.271v-1.121l.001-.03a.503.503 0 0 0-.06-.238l.001.003a.234.234 0 0 0-.1-.072l-.002-.001a.274.274 0 0 0-.132-.016h.001a.29.29 0 0 0-.133.016l.002-.001a.232.232 0 0 0-.101.072.481.481 0 0 0-.059.266v1.126a.507.507 0 0 0 .059.271.332.332 0 0 0 .231.091.35.35 0 0 0 .13-.025l-.002.001a.32.32 0 0 0 .104-.067v-.005zm1.179-2.049h.533l.401 1.689.411-1.689h.519l.053 2.438h-.384l-.041-1.694-.396 1.694h-.308l-.41-1.701-.038 1.701h-.388l.048-2.438zm2.513 0h.831c.479 0 .718.231.718.692 0 .442-.252.663-.756.662h-.283v1.083h-.513l.003-2.438zm.71 1.042a.384.384 0 0 0 .282-.077.393.393 0 0 0 .074-.275v-.027a.778.778 0 0 0-.026-.2l.001.005a.177.177 0 0 0-.038-.067.211.211 0 0 0-.063-.048l-.001-.001a.527.527 0 0 0-.202-.04l-.028.001h.001-.199V14h.199zm1.578-1.042h.551l.565 2.438h-.478l-.112-.562h-.491l-.115.562h-.485l.565-2.438zm.471 1.594-.192-1.023-.192 1.023h.383zm1.101-1.594h.359l.687 1.391v-1.391h.426v2.438h-.341l-.691-1.452v1.452h-.44l.001-2.438zm2.469 1.508-.571-1.505h.481l.349.967.327-.967h.471l-.564 1.505v.93h-.492v-.93zm-12.15 1.996v.127h-.418v.991h-.175v-.991h-.421v-.127h1.014zm1.312 1.119h-.14a.06.06 0 0 1-.035-.011.059.059 0 0 1-.022-.025l-.121-.266h-.581l-.121.266a.067.067 0 0 1-.019.03.06.06 0 0 1-.035.011h-.138l.513-1.118h.178l.519 1.114zm-.849-.415h.484l-.205-.455a.725.725 0 0 1-.036-.1l-.001-.006-.019.059-.019.047-.203.454zm1.733.305a.582.582 0 0 0 .253-.033l.069-.027v-.251h-.207a.04.04 0 0 1-.026-.009.024.024 0 0 1-.008-.009c-.002-.003-.002-.006-.002-.01v-.087h.398v.429a.755.755 0 0 1-.211.09l-.005.001a.928.928 0 0 1-.128.023c-.05.005-.1.007-.15.007h-.007a.779.779 0 0 1-.257-.043l.006.002a.616.616 0 0 1-.206-.118l.001.001a.558.558 0 0 1-.131-.174l-.001-.003a.545.545 0 0 1-.047-.225v-.015c0-.082.017-.16.048-.231l-.001.004c.029-.066.075-.127.132-.177s.128-.09.205-.116a.959.959 0 0 1 .539-.004.626.626 0 0 1 .192.102l-.049.069a.046.046 0 0 1-.039.021.057.057 0 0 1-.032-.009l-.053-.028.003.002a.387.387 0 0 0-.065-.029l-.003-.001a.65.65 0 0 0-.09-.024l-.004-.001a.785.785 0 0 0-.123-.01H19.104a.601.601 0 0 0-.196.032l.004-.001a.445.445 0 0 0-.151.088.378.378 0 0 0-.094.136l-.001.003a.505.505 0 0 0 .002.376l-.001-.004a.43.43 0 0 0 .252.229.577.577 0 0 0 .203.022zm1.634-.018h.56v.127h-.731v-1.118h.175l-.004.991zm1.143.128h-.175v-1.118h.175v1.118zm.652-1.113a.09.09 0 0 1 .027.02l.75.843-.001-.02.001-.021v.001-.833h.153v1.123h-.094a.072.072 0 0 1-.033-.007h.001a.097.097 0 0 1-.027-.021l-.749-.842v.869h-.147v-1.118h.091c.01 0 .02.002.029.005zm2.221-.006v.123h-.621v.369h.504v.119h-.504v.382h.621v.123h-.802v-1.115h.802zM6.389 9.557l7.787 1.909v6.689l-7.787-1.908v-6.69zm-.5-.571v7.586l8.785 2.154v-7.585L5.889 8.986z"/><path fill="#afb1b8" style="fill:var(--color3, #afb1b8)" d="m10.597 22.247-8.786-2.156v-7.584l8.786 2.155v7.585zM6.035 9.47l7.685 1.885-3.269 2.823-7.686-1.886L6.034 9.47zm-.146-.484-4.078 3.52 8.786 2.155 4.077-3.521-8.785-2.155zm5.203 12.834 3.582-3.094-3.583-.878v3.973z"/></symbol><symbol id="icon-clock" viewBox="0 0 32 32"><path fill="#212121" style="fill:var(--color1, #212121)" d="M31.296 15.301C31.295 6.849 24.441-.002 15.988 0S.685 6.855.687 15.308c.002 6.788 4.422 12.543 10.541 14.545l.108.031a.667.667 0 0 0 .529-.065.636.636 0 0 0 .283-.357l3.865-12.25a1.913 1.913 0 1 0-.852-3.63l.011-.005-5.106-5.107a.638.638 0 0 0-.902.902l5.103 5.109a1.847 1.847 0 0 0-.191.826c0 .602.283 1.137.723 1.48l.004.003-3.682 11.673C3.843 25.782.117 17.709 2.797 10.431S13.551-.573 20.829 2.108c7.278 2.681 11.004 10.754 8.323 18.032-1.345 3.581-4.003 6.406-7.374 7.938l-.088.036-.398-1.874a.639.639 0 0 0-1.05-.343l.001-.001-3.837 3.426a.637.637 0 0 0 .227 1.083l.005.001 4.899 1.563a.637.637 0 0 0 .818-.744l.001.004-.391-1.839c5.528-2.374 9.329-7.772 9.329-14.057v-.034.002zm-15.304-.637a.638.638 0 0 1 0 1.276.638.638 0 0 1 0-1.276zm2.1 14.864 2.184-1.948.603 2.84-2.787-.892z"/><path fill="#2196f3" style="fill:var(--color2, #2196f3)" d="M15.354 3.185V4.46a.638.638 0 0 0 1.276 0V3.185a.638.638 0 1 0-1.276 0zM3.876 14.664a.638.638 0 0 0 0 1.276h1.275a.638.638 0 0 0 0-1.276H3.876zm24.232 1.275a.638.638 0 0 0 0-1.276h-1.275a.638.638 0 0 0 0 1.276h1.275z"/></symbol><symbol id="icon-diagram" viewBox="0 0 32 32"><path fill="#2196f3" style="fill:var(--color2, #2196f3)" d="M14.926 14.965h1.066v4.798h-1.066v-4.798zm4.264 2.132h1.066v2.665H19.19v-2.665zm-8.529 1.599h1.066v1.066h-1.066v-1.066zm-3.198-.533h1.066v1.599H7.463v-1.599z"/><path fill="#212121" style="fill:var(--color1, #212121)" d="M1.599 28.291h25.586a1.6 1.6 0 0 0 1.599-1.599V24.56a1.6 1.6 0 0 0-1.599-1.599h-.533V9.667l3.028-2.868a1.608 1.608 0 1 0-.742-.752l-.004-.01-2.281 2.162v-1.23a1.6 1.6 0 0 0-1.599-1.599H3.731a1.6 1.6 0 0 0-1.599 1.599v15.992h-.533A1.6 1.6 0 0 0 0 24.56v2.132a1.6 1.6 0 0 0 1.599 1.599zM30.384 4.837a.533.533 0 0 1 0 1.066.533.533 0 0 1 0-1.066zM3.198 6.969c0-.294.239-.533.533-.533h21.323c.294 0 .533.239.533.533v2.239l-1.066 1.013V8.036a.534.534 0 0 0-.534-.534H4.798a.534.534 0 0 0-.534.533v13.327c0 .294.239.533.534.533h19.189a.534.534 0 0 0 .534-.533v-9.675l1.066-1.01V22.96H3.198V6.969zm4.798 6.93h-.005a1.6 1.6 0 1 0 1.112 2.748l1.853.93a.535.535 0 0 0 .636-.122l3.939-4.432 3.872 2.902a.534.534 0 0 0 .686-.039l3.365-3.188v8.131H5.331V8.568h18.123v2.661l-3.771 3.572-3.904-2.927a.534.534 0 0 0-.718.071v.001l-3.993 4.493-1.493-.746c.011-.064.017-.128.02-.193a1.6 1.6 0 0 0-1.599-1.599zm.533 1.599a.533.533 0 0 1-1.066 0 .533.533 0 0 1 1.066 0zm3.198 8.528h5.33v.533a.533.533 0 0 1-.533.533h-4.265a.533.533 0 0 1-.533-.533v-.533zm-10.66.534c0-.294.238-.533.533-.533h9.062v.533a1.6 1.6 0 0 0 1.599 1.599h4.265a1.6 1.6 0 0 0 1.599-1.599v-.533h9.062c.294 0 .533.239.533.533v2.132a.533.533 0 0 1-.533.533H1.601a.533.533 0 0 1-.533-.533V24.56z"/></symbol><symbol id="icon-envelope" viewBox="0 0 32 32"><path fill="#757575" style="fill:var(--color4, #757575)" d="M29 4H3C1.346 4 0 5.346 0 7v18c0 1.654 1.346 3 3 3h26c1.654 0 3-1.346 3-3V7c0-1.654-1.346-3-3-3zm0 2c.136 0 .266.028.384.078L16 17.678 2.616 6.078A.971.971 0 0 1 3 6h26zm0 20H3a1 1 0 0 1-1-1V8.19l13.344 11.566a.997.997 0 0 0 1.313-.001l-.001.001L30 8.19V25a1 1 0 0 1-1 1z"/></symbol><symbol id="icon-fb" viewBox="0 0 32 32"><path fill="#fff" style="fill:var(--color5, #fff)" d="M32 16v.02a15.9 15.9 0 0 1-4.686 11.293A15.902 15.902 0 0 1 16.021 32H16h.001-.02a15.9 15.9 0 0 1-11.293-4.686A15.902 15.902 0 0 1 .001 16.021V16v.001-.02A15.9 15.9 0 0 1 4.687 4.688 15.902 15.902 0 0 1 15.98.001h.021H16h.02a15.9 15.9 0 0 1 11.293 4.686A15.902 15.902 0 0 1 32 15.98v.021V16z"/><path fill="#afb1b8" style="fill:var(--color3, #afb1b8)" d="M18.422 11.142h1.329V8.829c-.56-.065-1.21-.102-1.868-.102h-.071.004c-1.915 0-3.226 1.204-3.226 3.418v2.036h-2.113v2.585h2.113v6.505h2.59v-6.505h2.028l.321-2.585H17.18v-1.782c0-.747.201-1.258 1.243-1.258z"/></symbol><symbol id="icon-f-facebook" viewBox="0 0 32 32"><path fill="#fff" style="fill:var(--color5, #fff)" d="M21.329 5.313h2.921V.225C23.746.156 22.013 0 19.994 0c-4.212 0-7.097 2.649-7.097 7.519V12H8.249v5.688h4.648V32h5.699V17.689h4.46l.708-5.688h-5.169V8.082c.001-1.644.444-2.769 2.735-2.769z"/></symbol><symbol id="icon-f-instagram" viewBox="0 0 32 32"><path fill="#fff" style="fill:var(--color5, #fff)" d="M31.969 9.408c-.075-1.7-.35-2.869-.744-3.882a7.806 7.806 0 0 0-1.851-2.838A7.867 7.867 0 0 0 26.542.844C25.523.45 24.36.175 22.66.1 20.947.019 20.403 0 16.059 0s-4.888.019-6.595.094c-1.7.075-2.869.35-3.882.744a7.803 7.803 0 0 0-2.838 1.85A7.867 7.867 0 0 0 .9 5.52C.506 6.539.231 7.702.156 9.402c-.081 1.713-.1 2.257-.1 6.601s.019 4.888.094 6.595c.075 1.7.35 2.869.744 3.882a7.895 7.895 0 0 0 1.85 2.838 7.867 7.867 0 0 0 2.832 1.844c1.019.394 2.182.669 3.882.744 1.706.075 2.25.094 6.595.094s4.888-.019 6.595-.094c1.7-.075 2.869-.35 3.882-.744a8.184 8.184 0 0 0 4.682-4.682c.394-1.019.669-2.182.744-3.882.075-1.707.094-2.251.094-6.595s-.006-4.888-.081-6.595zm-2.882 13.065c-.069 1.563-.331 2.407-.55 2.969a5.31 5.31 0 0 1-3.038 3.038c-.563.219-1.413.481-2.969.55-1.688.075-2.194.094-6.464.094s-4.782-.019-6.464-.094c-1.563-.069-2.407-.331-2.969-.55a4.926 4.926 0 0 1-1.838-1.194 4.974 4.974 0 0 1-1.194-1.838c-.219-.563-.481-1.413-.55-2.969-.075-1.688-.094-2.194-.094-6.464s.019-4.782.094-6.464c.069-1.563.331-2.407.55-2.969a4.868 4.868 0 0 1 1.2-1.838A4.974 4.974 0 0 1 6.639 3.55c.563-.219 1.413-.481 2.969-.55 1.688-.075 2.194-.094 6.464-.094 4.276 0 4.782.019 6.464.094 1.563.069 2.407.331 2.969.55a4.914 4.914 0 0 1 1.838 1.194 4.974 4.974 0 0 1 1.194 1.838c.219.563.481 1.413.55 2.969.075 1.688.094 2.194.094 6.464s-.019 4.77-.094 6.458z"/><path fill="#fff" style="fill:var(--color5, #fff)" d="M16.059 7.783c-4.538 0-8.22 3.682-8.22 8.22s3.682 8.22 8.22 8.22c4.539 0 8.22-3.682 8.22-8.22s-3.682-8.22-8.22-8.22zm0 13.552a5.333 5.333 0 0 1 0-10.664 5.333 5.333 0 0 1 0 10.664zM26.524 7.458a1.919 1.919 0 1 1-3.838 0 1.919 1.919 0 0 1 3.838 0z"/></symbol><symbol id="icon-f-linkedin" viewBox="0 0 32 32"><path fill="#fff" style="fill:var(--color5, #fff)" d="M31.992 32v-.001H32V20.263c0-5.741-1.236-10.164-7.948-10.164-3.227 0-5.392 1.771-6.276 3.449h-.093v-2.913h-6.364v21.364h6.627V21.42c0-2.785.528-5.479 3.977-5.479 3.399 0 3.449 3.179 3.449 5.657v10.401h6.62zM.528 10.636h6.635V32H.528V10.636zM3.843 0C1.722 0 0 1.721 0 3.843s1.721 3.879 3.843 3.879c2.121 0 3.843-1.757 3.843-3.879A3.846 3.846 0 0 0 3.843 0z"/></symbol><symbol id="icon-f-twitter" viewBox="0 0 32 32"><path fill="#fff" style="fill:var(--color5, #fff)" d="M32 6.078c-1.19.522-2.458.868-3.78 1.036a6.523 6.523 0 0 0 2.886-3.626 13.11 13.11 0 0 1-4.16 1.588A6.574 6.574 0 0 0 22.154 3c-3.632 0-6.556 2.948-6.556 6.562 0 .52.044 1.02.152 1.496-5.454-.266-10.28-2.88-13.522-6.862a6.605 6.605 0 0 0-.898 3.316 6.57 6.57 0 0 0 2.914 5.452 6.479 6.479 0 0 1-2.964-.808v.072c0 3.188 2.274 5.836 5.256 6.446a6.548 6.548 0 0 1-1.72.216 5.8 5.8 0 0 1-1.242-.112c.85 2.598 3.262 4.508 6.13 4.57a13.182 13.182 0 0 1-8.134 2.798c-.538 0-1.054-.024-1.57-.09A18.469 18.469 0 0 0 10.064 29c12.072 0 18.672-10 18.672-18.668 0-.29-.01-.57-.024-.848A13.087 13.087 0 0 0 32 6.078z"/></symbol><symbol id="icon-instagram" viewBox="0 0 32 32"><path fill="#fff" style="fill:var(--color5, #fff)" d="M32 16v.02a15.9 15.9 0 0 1-4.686 11.293A15.902 15.902 0 0 1 16.021 32H16h.001-.02a15.9 15.9 0 0 1-11.293-4.686A15.902 15.902 0 0 1 .001 16.021V16v.001-.02A15.9 15.9 0 0 1 4.687 4.688 15.902 15.902 0 0 1 15.98.001h.021H16h.02a15.9 15.9 0 0 1 11.293 4.686A15.902 15.902 0 0 1 32 15.98v.021V16z"/><path fill="#afb1b8" style="fill:var(--color3, #afb1b8)" d="M23.258 13.004c-.033-.773-.159-1.304-.337-1.764a3.57 3.57 0 0 0-.841-1.29l-.001-.001a3.583 3.583 0 0 0-1.263-.83l-.024-.008c-.463-.179-.991-.304-1.764-.337-.778-.037-1.025-.046-3.001-.046s-2.222.009-2.998.043c-.773.033-1.304.159-1.764.338a3.58 3.58 0 0 0-1.29.84l-.001.001c-.36.354-.645.784-.83 1.263l-.008.024c-.18.463-.304.991-.338 1.764-.037.778-.046 1.025-.046 3.001s.009 2.222.043 2.998c.034.773.159 1.304.338 1.764.194.505.48.935.84 1.29h.001c.364.369.804.656 1.287.838.463.18.992.305 1.764.338.776.034 1.023.043 2.998.043s2.222-.009 2.998-.043c.773-.033 1.304-.159 1.764-.337a3.741 3.741 0 0 0 2.12-2.104l.009-.025c.179-.463.304-.992.338-1.764.034-.776.042-1.023.042-2.998s-.003-2.222-.036-2.998zm-1.309 5.939c-.032.711-.151 1.094-.25 1.349a2.428 2.428 0 0 1-1.365 1.376l-.016.006c-.255.099-.641.218-1.349.249-.767.034-.997.043-2.938.043s-2.174-.009-2.938-.043c-.711-.031-1.094-.151-1.35-.25a2.237 2.237 0 0 1-.834-.542l-.001-.001a2.268 2.268 0 0 1-.538-.819l-.005-.016c-.099-.256-.218-.642-.249-1.35-.034-.767-.043-.998-.043-2.938s.009-2.175.043-2.938c.031-.711.151-1.094.249-1.35.122-.328.308-.608.545-.835l.001-.001c.229-.235.509-.42.821-.537l.016-.005c.255-.099.641-.218 1.349-.25.767-.033.998-.042 2.938-.042 1.943 0 2.174.008 2.938.042.711.031 1.094.151 1.35.25.315.116.602.301.835.543.241.236.426.52.543.836.099.255.218.641.249 1.349.034.767.043.997.043 2.938s-.009 2.167-.043 2.935z"/><path fill="#afb1b8" style="fill:var(--color3, #afb1b8)" d="M16.027 12.265h-.001a3.737 3.737 0 1 0 3.737 3.737v-.001a3.737 3.737 0 0 0-3.737-3.737zm0 6.16a2.424 2.424 0 1 1 0-4.848 2.424 2.424 0 1 1 0 4.848zm4.757-6.308a.873.873 0 0 1-1.746 0 .873.873 0 0 1 1.746 0z"/></symbol><symbol id="icon-linkedin" viewBox="0 0 32 32"><path fill="#fff" style="fill:var(--color5, #fff)" d="M32 16v.02a15.9 15.9 0 0 1-4.686 11.293A15.902 15.902 0 0 1 16.021 32H16h.001-.02a15.9 15.9 0 0 1-11.293-4.686A15.902 15.902 0 0 1 .001 16.021V16v.001-.02A15.9 15.9 0 0 1 4.687 4.688 15.902 15.902 0 0 1 15.98.001h.021H16h.02a15.9 15.9 0 0 1 11.293 4.686A15.902 15.902 0 0 1 32 15.98v.021V16z"/><path fill="#afb1b8" style="fill:var(--color3, #afb1b8)" d="M23.269 23.273h.004v-5.335c0-2.609-.562-4.62-3.613-4.62-1.466 0-2.451.804-2.852 1.567h-.042v-1.324h-2.893v9.711h3.012v-4.808c0-1.266.24-2.491 1.808-2.491 1.545 0 1.567 1.445 1.567 2.572v4.728h3.009zM8.967 13.562h3.016v9.711H8.967v-9.711zm1.507-4.835c-.965 0-1.747.782-1.747 1.747 0 .964.783 1.763 1.747 1.763s1.746-.799 1.746-1.763c0-.964-.782-1.746-1.746-1.747z"/></symbol><symbol id="icon-smartphone" viewBox="0 0 32 32"><path fill="#757575" style="fill:var(--color4, #757575)" d="M23 0H9C7.346 0 6 1.346 6 3v26c0 1.654 1.346 3 3 3h14c1.654 0 3-1.346 3-3V3c0-1.654-1.346-3-3-3zM9 2h14a1 1 0 0 1 1 1v21H8V3a1 1 0 0 1 1-1zm14 28H9a1 1 0 0 1-1-1v-3h16v3a1 1 0 0 1-1 1z"/><path fill="#757575" style="fill:var(--color4, #757575)" d="M10.708 27.478a.889.889 0 0 1 .001 1.319l-.001.001a1.048 1.048 0 0 1-1.417 0l.001.001a.889.889 0 0 1-.001-1.319l.001-.001a1.048 1.048 0 0 1 1.417 0l-.001-.001z"/></symbol><symbol id="icon-sprite" viewBox="0 0 32 32"><path fill="#757575" style="fill:var(--color4, #757575)" d="M10.708 27.478a.889.889 0 0 1 .001 1.319l-.001.001a1.048 1.048 0 0 1-1.417 0l.001.001a.889.889 0 0 1-.001-1.319l.001-.001a1.048 1.048 0 0 1 1.417 0l-.001-.001z"/></symbol><symbol id="icon-symbol-defs" viewBox="0 0 32 32"><path fill="#757575" style="fill:var(--color4, #757575)" d="M10.708 27.478a.889.889 0 0 1 .001 1.319l-.001.001a1.048 1.048 0 0 1-1.417 0l.001.001a.889.889 0 0 1-.001-1.319l.001-.001a1.048 1.048 0 0 1 1.417 0l-.001-.001z"/></symbol><symbol id="icon-twitter" viewBox="0 0 32 32"><path fill="#fff" style="fill:var(--color5, #fff)" d="M32 16v.02a15.9 15.9 0 0 1-4.686 11.293A15.902 15.902 0 0 1 16.021 32H16h.001-.02a15.9 15.9 0 0 1-11.293-4.686A15.902 15.902 0 0 1 .001 16.021V16v.001-.02A15.9 15.9 0 0 1 4.687 4.688 15.902 15.902 0 0 1 15.98.001h.021H16h.02a15.9 15.9 0 0 1 11.293 4.686A15.902 15.902 0 0 1 32 15.98v.021V16z"/><path fill="#afb1b8" style="fill:var(--color3, #afb1b8)" d="M23.273 11.49c-.5.224-1.08.39-1.688.467l-.031.003a2.98 2.98 0 0 0 1.306-1.627l.006-.021a5.851 5.851 0 0 1-1.853.715l-.038.006a2.981 2.981 0 0 0-5.158 2.036v.003c0 .236.02.464.07.68a8.443 8.443 0 0 1-6.147-3.119 2.984 2.984 0 0 0 .917 3.986 2.937 2.937 0 0 1-1.362-.375l.015.008v.033a2.995 2.995 0 0 0 2.37 2.927l.02.003a2.906 2.906 0 0 1-.756.098h-.028.001-.047c-.183 0-.362-.019-.534-.054l.017.003a3.012 3.012 0 0 0 2.786 2.078 5.948 5.948 0 0 1-3.69 1.271h-.047c-.238 0-.472-.015-.701-.044l.027.003a8.317 8.317 0 0 0 4.547 1.338h.029-.002c5.487 0 8.487-4.545 8.487-8.486 0-.131-.004-.259-.011-.385a5.978 5.978 0 0 0 1.481-1.526l.014-.021z"/></symbol><symbol id="icon-antena1" viewBox="0 0 32 32"><path fill="#212121" style="fill:var(--color1, #212121)" d="m30.773 22.098-8.443-8.505.937-4.616c.225.09.485.144.758.146h.033a2.16 2.16 0 1 0-2.029-1.42l-.005-.015-4.96.606L8.973.161a.53.53 0 0 0-.376-.16.536.536 0 0 0-.373.155L6.712 1.66a.535.535 0 0 0 0 .754l.814.825C6.383 5.301 5.71 7.761 5.71 10.378c0 4.106 1.656 7.824 4.336 10.525l-.001-.001a.49.49 0 0 0 .146.097 2.986 2.986 0 0 0-.052.546v6.188h-6.4a2.669 2.669 0 0 0-2.667 2.666v1.067c0 .295.239.534.534.534H26.14a.534.534 0 0 0 .533-.534v-1.067a2.67 2.67 0 0 0-2.666-2.666h-6.4v-2.742a14.784 14.784 0 0 0 10.166-1.502l-.077.039.818.823a.534.534 0 0 0 .376.16.536.536 0 0 0 .373-.155l1.512-1.504a.535.535 0 0 0 0-.754zM23.28 6.233a1.067 1.067 0 1 1 .752 1.822h-.004a1.066 1.066 0 0 1-.747-1.822h-.002zm-1.256 3.504-.598 2.946-1.175-1.183 1.774-1.763zm-.605-.902-1.92 1.909-1.486-1.493 3.406-.416zM24.004 28.8a1.6 1.6 0 0 1 1.6 1.6v.534H2.138V30.4a1.6 1.6 0 0 1 1.6-1.6h20.267zm-7.466-2.134v1.067h-5.334v-1.067h5.334zM11.204 25.6v-4.053c0-1.294 1.196-2.346 2.667-2.346s2.667 1.053 2.667 2.346V25.6h-5.334zm6.4-1.696v-2.357c0-1.882-1.675-3.413-3.733-3.413h-.058c-1.353 0-2.54.707-3.213 1.771l-.009.016a13.817 13.817 0 0 1-3.812-9.55c0-2.314.567-4.496 1.569-6.414l-.036.077 18.602 18.709c-1.823.947-3.979 1.502-6.266 1.502-1.079 0-2.128-.124-3.136-.357l.093.018zm11.289-.684L7.836 2.039l.754-.752 7.935 7.98c.004 0 .006.007.01.01l13.114 13.191-.757.752z"/><path fill="#2196f3" style="fill:var(--color2, #2196f3)" d="M13.876 20.267h-.007a1.6 1.6 0 0 0-.003 3.2h.007a1.6 1.6 0 0 0 .002-3.2zm.373 1.978a.534.534 0 1 1-.378-.912.533.533 0 0 1 .374.911h.005z"/></symbol><symbol id="icon-astronaut1" viewBox="0 0 32 32"><path fill="#2196f3" style="fill:var(--color2, #2196f3)" d="M31.974 4.524a.535.535 0 0 0-.427-.362h-.003l-1.911-.278-.855-1.731c-.179-.365-.777-.365-.956 0l-.855 1.731-1.911.278a.534.534 0 0 0-.296.91l1.383 1.348-.326 1.903a.532.532 0 0 0 .774.562l1.709-.899 1.709.899a.534.534 0 0 0 .773-.565v.003l-.326-1.903 1.383-1.348a.535.535 0 0 0 .134-.55l.001.004zm-2.463 1.327a.53.53 0 0 0-.153.472l.191 1.114-1-.526a.525.525 0 0 0-.501.001l.003-.001-1 .526.191-1.114a.53.53 0 0 0-.152-.472l-.811-.79 1.119-.162a.532.532 0 0 0 .402-.292l.5-1.013.5 1.013a.532.532 0 0 0 .402.292l1.119.162-.809.79zm-3.377 14.671h-1.067v1.067h1.067v-1.067zm0 2.134h-1.067v1.066h1.067v-1.066zm1.066-1.067h-1.067v1.067H27.2v-1.067zm-2.133 0H24v1.067h1.067v-1.067zm-2.667 4.8h-1.067v1.067H22.4v-1.067zm0 2.134h-1.067v1.067H22.4v-1.067zm1.067-1.067H22.4v1.067h1.067v-1.067zm-2.133 0h-1.067v1.067h1.067v-1.067zM16 24.256h-1.066v1.067H16v-1.067zm0 2.133h-1.066v1.067H16v-1.067zm1.067-1.067H16v1.067h1.067v-1.067zm-2.133 0h-1.067v1.067h1.067v-1.067zm-9.067-19.2H4.801v1.066h1.066V6.122zm0 2.134H4.801v1.066h1.066V8.256zm1.066-1.067H5.866v1.067h1.066V7.189zm-2.133 0H3.733v1.067H4.8V7.189z"/><path fill="#212121" style="fill:var(--color1, #212121)" d="M24.715 14.16a1.774 1.774 0 0 0-1.179-.703l-.009-.001a1.769 1.769 0 0 0-1.344.355l.004-.003-1.253.96-1.898 1.417-1.358-.541c2.421-1.086 4.113-3.508 4.113-6.32 0-3.823-3.122-6.934-6.961-6.934S7.869 5.5 7.869 9.324c0 1.386.415 2.674 1.12 3.759l-2.768-.024c-.009 0-.016.005-.023.005a.511.511 0 0 0-.159.033l.004-.001c-.013.005-.026.007-.038.013-.006.003-.013.003-.019.006l-3.233 1.596-.001.001-1.893.91a.5.5 0 0 0-.065.036l.001-.001a1.782 1.782 0 0 0-.594 2.306l-.005-.01c.22.424.592.742 1.043.885l.013.003a1.772 1.772 0 0 0 1.388-.133l-.009.005 1.388-.738 2.264-1.169 1.357-.008-5.442 5.415-.001.001-1.339 1.333a1.643 1.643 0 0 0-.491 1.173v.005a1.668 1.668 0 0 0 1.667 1.664h.002a1.67 1.67 0 0 0 1.18-.485l1.314-1.309 1.741-1.3.901.897L4.07 27.28a1.643 1.643 0 0 0-.491 1.173v.004a1.662 1.662 0 0 0 1.666 1.664h.003a1.67 1.67 0 0 0 1.18-.485l4.488-4.472c.007-.006.016-.009.022-.016l5.166-5.658 3.471.494a.474.474 0 0 0 .262-.032c.017-.006.032-.015.049-.023.019-.01.039-.015.058-.027l3.213-2.133c.012-.008.018-.021.029-.03.013-.01.029-.014.041-.026l1.271-1.191c.348-.326.564-.787.564-1.3 0-.4-.132-.769-.355-1.066l.003.005zM2.13 17.77a.706.706 0 0 1-.564.05l.005.001a.717.717 0 0 1-.215-1.258l.002-.001 1.314-.632.316.924.133.389-.992.527zm3.497-1.828-1.548.8-.255-.746-.184-.537 2.027-1.001-.04 1.484zm15.1-6.62c0 .918-.219 1.785-.599 2.56l-4.181-1.899a1.865 1.865 0 0 0-.782-1.384l-.006-.004 1.464-4.861c2.377.757 4.104 2.975 4.104 5.588zm-11.789 0c0-3.235 2.644-5.867 5.894-5.867.253 0 .5.022.745.053l-1.432 4.753c-.019 0-.037-.006-.057-.006h-.001a1.872 1.872 0 0 0-1.872 1.867 1.873 1.873 0 0 0 1.872 1.867h.001c.695 0 1.295-.383 1.618-.944l3.863 1.755a5.891 5.891 0 0 1-4.737 2.39c-3.25 0-5.894-2.632-5.894-5.867zm5.957.8c0 .441-.362.8-.806.8h-.001a.804.804 0 0 1-.804-.8c0-.441.361-.8.806-.8s.806.359.806.8zM2.464 25.146a.606.606 0 0 1-.855.001.591.591 0 0 1 0-.844l.962-.959.852.848-.959.954zm3.214 3.734a.606.606 0 0 1-.855.001.591.591 0 0 1 0-.844l.963-.959.852.848-.96.955zm3.482-3.469-.001.001-1.765 1.76-.852-.848 1.765-1.757a.527.527 0 0 0 .09-.136c.007-.014.02-.026.026-.04.016-.041.019-.085.026-.128.003-.025.014-.048.014-.073 0-.035-.013-.07-.02-.105-.006-.032-.006-.064-.019-.096a.536.536 0 0 0-.092-.138c-.01-.012-.014-.026-.025-.038h-.001l-.001-.002-1.607-1.6c-.017-.017-.039-.024-.058-.038a.491.491 0 0 0-.084-.056l-.003-.001a.527.527 0 0 0-.09-.031l-.003-.001a.502.502 0 0 0-.101-.02h-.025a.603.603 0 0 0-.075.005h.003c-.036.005-.069.009-.104.021s-.064.027-.094.045c-.02.011-.043.015-.061.029l-1.774 1.324-.901-.897 2.399-2.386 4.36 4.289-.928.919zm6.819-7.017c-.016-.002-.03.004-.046.003l-.027-.001a.562.562 0 0 0-.092.008h.003a.484.484 0 0 0-.187.07l.002-.001a.492.492 0 0 0-.083.061c-.013.011-.028.016-.04.029l-4.698 5.146-4.328-4.256 2.833-2.818a.535.535 0 0 0-.378-.911h-.002l-2.219.013.028-1.607 3.104.027a6.928 6.928 0 0 0 4.978 2.101h.003c.438 0 .864-.046 1.28-.122.04.032.08.064.129.085l2.41.96.152.758.178.886-3.003-.427zm4.041.178-.313-1.558 1.446-1.08.946 1.257-2.08 1.381zm3.753-2.831-.837.785-.931-1.236.831-.637a.735.735 0 0 1 .543-.143.718.718 0 0 1 .621.71.71.71 0 0 1-.226.521z"/><path fill="#212121" style="fill:var(--color1, #212121)" d="m13.602 18.544-2.143-2.134a.53.53 0 0 0-.752 0l-2.143 2.133a.535.535 0 0 0 0 .756l2.142 2.134a.53.53 0 0 0 .752 0l2.143-2.134a.532.532 0 0 0 0-.756zm-2.519 1.759-1.387-1.381 1.386-1.381 1.387 1.381-1.387 1.381zm6.081-15.232-.258 1.036c.071.018 1.738.452 1.738 2.149h1.067c0-2.017-1.666-2.965-2.547-3.184zm2.547 4.251h-1.067v1.066h1.067V9.322z"/></symbol><symbol id="icon-client-11" viewBox="0 0 57 32"><path fill="#afb1b8" style="fill:var(--color3, #afb1b8)" d="m20.267 3.733 3.738 3.538-6.938-.004v17.167H35.2V17.87l3.733 3.534V3.733H20.266zm14.769 13.722L24.439 7.423h10.597v10.032zm-3.29 4.468h-11.81V10.378h.835v10.763h10.975v.781zm-9.021 4.797-.436.899-.436-.899h-.366l.637 1.198v.698h.331v-.698l.635-1.198h-.364zm.549 1.896.154-.442h.734l.155.442h.344l-.717-1.896h-.296l-.716 1.896h.342zm.52-1.493.275.786h-.549l.275-.787zm1.737.74a.425.425 0 0 0-.071.238v.003c0 .16.056.29.168.389s.263.149.45.149a.784.784 0 0 0 .485-.153l.107.126h.367l-.278-.33a.95.95 0 0 0 .164-.574h-.275a.768.768 0 0 1-.079.348l-.366-.432.129-.094a.724.724 0 0 0 .195-.195l.002-.003a.41.41 0 0 0 .06-.216v-.01a.39.39 0 0 0-.132-.293.477.477 0 0 0-.32-.123h-.02.001c-.153 0-.274.044-.364.13s-.135.203-.135.352c0 .061.014.123.043.189.03.065.082.144.155.237a1.13 1.13 0 0 0-.282.261zm.856.42a.478.478 0 0 1-.299.107h-.015a.31.31 0 0 1-.212-.083.286.286 0 0 1-.085-.203v-.011.001c0-.101.052-.192.156-.271l.041-.029.414.489zm-.34-.84c-.09-.11-.134-.202-.134-.275 0-.063.019-.116.055-.157a.184.184 0 0 1 .139-.063h.015c.052 0 .1.02.135.054a.168.168 0 0 1 .056.126v.007a.234.234 0 0 1-.08.177l-.041.032-.145.099zm3.086 1.03a.689.689 0 0 0 .224-.474h-.328c-.018.135-.059.232-.124.29s-.163.087-.292.087c-.141 0-.249-.054-.323-.162s-.11-.264-.11-.469v-.167c.002-.203.041-.355.117-.46a.386.386 0 0 1 .331-.157c.123 0 .217.03.28.091s.104.158.12.294h.328c-.021-.207-.095-.368-.222-.482s-.296-.171-.506-.171a.717.717 0 0 0-.681.421l-.002.005c-.06.133-.096.288-.096.451v.023-.001.177c.003.174.035.327.098.46s.151.234.266.306a.75.75 0 0 0 .4.107c.216 0 .389-.056.519-.169zm1.936-.266c.064-.141.097-.304.097-.49v-.125c0-.169-.036-.329-.102-.473l.003.007a.728.728 0 0 0-.274-.318l-.003-.002c-.119-.075-.256-.112-.411-.112s-.291.037-.411.113a.738.738 0 0 0-.277.324 1.135 1.135 0 0 0-.098.466v.025-.001.107c.001.181.034.341.099.48a.752.752 0 0 0 .279.322.764.764 0 0 0 .411.112.755.755 0 0 0 .412-.112.737.737 0 0 0 .276-.323zm-.353-1.072c.08.112.119.274.119.484v.099c0 .213-.039.376-.118.487a.386.386 0 0 1-.336.167h-.014a.393.393 0 0 1-.324-.17l-.001-.001c-.081-.114-.121-.275-.121-.483v-.109c.002-.204.043-.362.122-.473a.39.39 0 0 1 .321-.168h.014-.001a.39.39 0 0 1 .338.168z"/></symbol><symbol id="icon-client-21" viewBox="0 0 57 32"><path fill="#afb1b8" style="fill:var(--color3, #afb1b8)" d="M26.727 3.165h-.073a7.542 7.542 0 0 0-.336-.012h-.243c-.212 0-.428.005-.642.016l-.024-.001-.025.001h.001c-2.059.12-3.971.635-5.699 1.47l.09-.039-.23.111V16.52l.54-.183a20.64 20.64 0 0 1 1.5-.445 17.815 17.815 0 0 1 4.305-.573h.012v1.551c-.193.001-.38.006-.568.016h-.045c-1.212.068-2.348.25-3.442.537l.12-.027c-1.503.382-2.82.91-4.044 1.586l.087-.044V3.793a15.49 15.49 0 0 1 4.042-1.665l.11-.024a15.544 15.544 0 0 1 3.909-.505h.231c.273.007.539.019.788.038.658.046 1.31.15 1.949.311v1.527a11.487 11.487 0 0 0-1.849-.282l-.039-.002-.039-.003c-.132-.011-.263-.022-.386-.022zm2.688 1.561c.339.026.69.038 1.044.038a16.84 16.84 0 0 0 4.231-.554l-.117.026a16.9 16.9 0 0 0 4.043-1.587l-.087.044v14.875a15.559 15.559 0 0 1-4.042 1.665l-.11.024c-1.173.314-2.52.498-3.91.503h-.1c-1.02 0-2.01-.128-2.955-.368l.083.018V4.438c.229.053.466.102.706.142.394.067.81.115 1.214.145zm7.57.116-.54.181c-.496.167-.997.316-1.5.449-1.344.36-2.888.569-4.48.575h-.004c-.352 0-.676-.01-.989-.03l-.43-.028v12.148l.37.032c.342.03.696.045 1.052.045a14.371 14.371 0 0 0 3.631-.48l-.1.023a14.671 14.671 0 0 0 2.848-1.031l-.088.039.23-.111V4.842zM19.06 24.113a.794.794 0 0 0-.572-.243l-.03.001h.001-.012a.888.888 0 0 0-.34.067l.006-.002a.785.785 0 0 0-.442.444l-.002.005a.874.874 0 0 0-.062.335v2.023a.957.957 0 0 0 .079.415.808.808 0 0 0 .203.271.714.714 0 0 0 .277.144c.099.027.201.042.302.042a.854.854 0 0 0 .838-.851v-.226h-.53v.192c0 .06-.011.118-.032.171l.001-.003a.315.315 0 0 1-.077.114.367.367 0 0 1-.221.077.265.265 0 0 1-.247-.108l-.001-.001a.478.478 0 0 1-.071-.251v-.021.001-1.887a.643.643 0 0 1 .065-.302.27.27 0 0 1 .227-.124l.033.002h-.001.01c.092 0 .174.045.226.114l.001.001a.425.425 0 0 1 .088.26v.012-.001.175h.524v-.215a.958.958 0 0 0-.067-.352l.002.006a.838.838 0 0 0-.177-.285zm3.142-.022a.92.92 0 0 0-.917-.166.838.838 0 0 0-.483.443l-.002.005a.94.94 0 0 0-.077.392v1.94a.932.932 0 0 0 .077.397.77.77 0 0 0 .205.271.837.837 0 0 0 .279.171.914.914 0 0 0 .919-.172l-.001.001a.831.831 0 0 0 .199-.271.934.934 0 0 0 .077-.397v-1.958a.952.952 0 0 0-.08-.381l.002.006a.876.876 0 0 0-.199-.283zm-.247 2.615.001.03a.349.349 0 0 1-.106.251.388.388 0 0 1-.499 0h.001a.344.344 0 0 1-.106-.25c0-.011 0-.022.002-.032v.001-1.941l-.001-.03c0-.098.041-.187.106-.25a.388.388 0 0 1 .499 0h-.001a.344.344 0 0 1 .106.25l-.001.032v-.001 1.941zm4.374.867v-3.675h-.508l-.668 1.945h-.009l-.674-1.945h-.503v3.674h.525v-2.235h.01l.514 1.58h.262l.518-1.58h.01v2.235h.525zm2.982-3.416a.727.727 0 0 0-.297-.201 1.153 1.153 0 0 0-.361-.057h-.8v3.675h.524v-1.435h.269a.968.968 0 0 0 .473-.1.779.779 0 0 0 .286-.278l.002-.003a.893.893 0 0 0 .12-.32 2.56 2.56 0 0 0 .028-.385v-.035.002a2.107 2.107 0 0 0-.051-.525.789.789 0 0 0-.193-.338zm-.27 1.12a.45.45 0 0 1-.05.194l.001-.003a.3.3 0 0 1-.133.128l-.002.001a.525.525 0 0 1-.22.047l-.028-.001h.001-.239v-1.249h.27l.025-.001c.077 0 .149.017.214.048l-.003-.001a.299.299 0 0 1 .122.134l.001.002a.537.537 0 0 1 .046.205v.244c0 .085.005.174 0 .252h-.005zm2.75-1.378h-.429l-.81 3.675h.524l.154-.789h.714l.154.789h.523l-.829-3.675zm-.483 2.384.258-1.332h.01l.256 1.332h-.523zm3.865-.171h-.01l-.79-2.213h-.503v3.675h.523v-2.21h.011l.8 2.209h.493v-3.674h-.523v2.213zm3.199-2.213-.421 1.461h-.011l-.421-1.461h-.554l.719 2.122v1.553h.524v-1.553l.719-2.121h-.555zM17.6 28.611h.252v.708h.171v-.708h.251v-.145H17.6v.146zm2.121-.146-.331.853h.182l.07-.194h.34l.073.194h.187l-.339-.853h-.182zm-.027.516.116-.316.116.316h-.232zm2.124.023h.197v.11a.326.326 0 0 1-.203.072H21.8a.218.218 0 0 1-.169-.081.352.352 0 0 1-.063-.203l.001-.02v.001c0-.19.082-.285.245-.285l.018-.001a.18.18 0 0 1 .174.136v.001l.169-.033c-.036-.166-.156-.251-.362-.251h-.011a.43.43 0 0 0-.287.11.415.415 0 0 0-.123.329v-.001.02c0 .115.041.22.11.301l-.001-.001a.411.411 0 0 0 .297.126l.027-.001h-.001.014a.51.51 0 0 0 .348-.137v-.336h-.37v.144zm2.141-.539h-.173v.853h.597v-.145h-.425v-.708zm1.811 0h-.173v.853h.173v-.853zm1.769.57-.349-.57h-.167v.853h.16v-.557l.343.557h.172v-.853h-.158v.57zm1.601-.093h.425v-.145h-.425v-.187h.457v-.146h-.63v.853h.647v-.145h-.475v-.231zm3.88-.14h-.336v-.336h-.171v.853h.171v-.373h.336v.373h.172v-.853h-.172v.337zm1.609.14h.427v-.145h-.427v-.187h.459v-.146h-.629v.853h.646v-.145h-.475v-.231zm2.183.001c.149-.023.224-.102.224-.237l.001-.024a.205.205 0 0 0-.085-.166h-.001a.478.478 0 0 0-.216-.051l-.035.001h.002-.362v.853h.172v-.357h.048c.034 0 .066.007.094.02l-.001-.001a.181.181 0 0 1 .061.062l.186.271h.205l-.104-.166a.598.598 0 0 0-.187-.203l-.002-.001zm-.173-.118h-.126v-.214h.135l.036-.001c.049 0 .097.008.141.023l-.003-.001c.023.021.037.05.037.083a.114.114 0 0 1-.045.09.464.464 0 0 1-.142.021l-.033-.001h.002zm1.82.117h.425v-.145h-.425v-.187h.459v-.146h-.631v.853h.647v-.145h-.475v-.231z"/></symbol><symbol id="icon-client-31" viewBox="0 0 57 32"><path fill="#afb1b8" style="fill:var(--color3, #afb1b8)" d="M19.417 26.187a.07.07 0 0 1 .046.018l.116.111a.964.964 0 0 1-.327.211 1.254 1.254 0 0 1-.434.076h-.032.002a1.213 1.213 0 0 1-.436-.071.958.958 0 0 1-.33-.2l.001.001a.908.908 0 0 1-.21-.302l-.002-.006a1.016 1.016 0 0 1-.075-.385v-.012.001-.02c0-.272.118-.516.305-.684l.001-.001a1.06 1.06 0 0 1 .349-.201c.143-.048.296-.072.45-.07h.028c.139 0 .273.024.398.067l-.009-.003c.115.044.221.104.313.179l-.098.118a.12.12 0 0 1-.024.021.064.064 0 0 1-.034.009h-.006a.102.102 0 0 1-.043-.012L19.314 25l-.073-.041a.823.823 0 0 0-.225-.07l-.005-.001a1 1 0 0 0-.161-.013h-.013.001-.011a.963.963 0 0 0-.319.055l.007-.002a.734.734 0 0 0-.254.15l.001-.001a.67.67 0 0 0-.164.237.774.774 0 0 0-.059.302v.011-.001.013c0 .11.022.215.061.311l-.002-.005a.707.707 0 0 0 .162.236.662.662 0 0 0 .242.147.886.886 0 0 0 .299.051c.059.001.119-.003.178-.01a.696.696 0 0 0 .385-.164l-.001.001a.088.088 0 0 1 .055-.02zm3.358-.558v.012a.958.958 0 0 1-.081.387l.002-.006a.864.864 0 0 1-.218.304l-.001.001a1.01 1.01 0 0 1-.337.198l-.007.002a1.409 1.409 0 0 1-.894-.003l.01.003a1.016 1.016 0 0 1-.342-.202l.001.001a.893.893 0 0 1-.219-.303l-.002-.006a1.024 1.024 0 0 1 .003-.793l-.003.007a.925.925 0 0 1 .221-.309c.097-.085.213-.15.341-.194a1.383 1.383 0 0 1 .894.003l-.01-.003c.129.045.246.114.343.201a.903.903 0 0 1 .298.701zm-.305 0v-.017a.812.812 0 0 0-.058-.305l.002.006a.656.656 0 0 0-.396-.384l-.005-.001a1.027 1.027 0 0 0-.65.002l.007-.002a.682.682 0 0 0-.246.15.626.626 0 0 0-.156.232l-.001.004a.91.91 0 0 0 .003.638l-.002-.006a.652.652 0 0 0 .399.383l.005.001c.207.068.435.068.643 0a.685.685 0 0 0 .245-.148.662.662 0 0 0 .156-.236.817.817 0 0 0 .055-.316zm2.597.331.031.07c.011-.025.021-.048.033-.07a.937.937 0 0 1 .039-.072l-.002.003.743-1.174c.015-.02.028-.033.043-.037s.033-.007.051-.007h.23v1.909h-.26v-1.463l-.001-.033.001-.035v.002l-.748 1.19a.111.111 0 0 1-.043.043h-.001a.13.13 0 0 1-.063.016H25.075a.134.134 0 0 1-.063-.016h.001a.111.111 0 0 1-.043-.043v-.001l-.77-1.198v1.532h-.251v-1.905h.229c.018 0 .036.002.052.007h-.001a.087.087 0 0 1 .041.037l.759 1.175c.014.02.026.042.037.066l.001.003zm2.796-.095v.715h-.29v-1.906h.649c.123-.002.244.012.362.042a.724.724 0 0 1 .256.119.499.499 0 0 1 .144.184l.001.003a.577.577 0 0 1 .05.244v.012a.53.53 0 0 1-.209.422l-.001.001a.757.757 0 0 1-.258.126 1.208 1.208 0 0 1-.327.044h-.024l-.351-.005zm0-.205h.352a.82.82 0 0 0 .226-.029.488.488 0 0 0 .164-.083l-.001.001a.365.365 0 0 0 .133-.282v-.005l.001-.021a.33.33 0 0 0-.03-.137l.001.002a.371.371 0 0 0-.101-.13l-.001-.001a.621.621 0 0 0-.345-.104l-.048.002h.002-.352v.786zm3.909.922h-.233a.111.111 0 0 1-.06-.018.116.116 0 0 1-.038-.044v-.001l-.197-.461h-.994l-.205.461a.11.11 0 0 1-.099.062h-.233l.873-1.909h.302l.884 1.909zm-1.44-.708h.82l-.346-.777a1.33 1.33 0 0 1-.066-.179l-.034.1a.652.652 0 0 1-.032.081l-.343.775zm2.697-1.191a.12.12 0 0 1 .043.034l1.273 1.439v-1.482h.26v1.909h-.148a.135.135 0 0 1-.057-.012h.001a.165.165 0 0 1-.047-.035l-1.27-1.438.001.033-.001.034v-.002 1.419h-.26v-1.909h.154a.15.15 0 0 1 .052.009zm3.719 1.14v.758h-.291v-.757l-.804-1.15h.266c.021 0 .04.006.056.016a.175.175 0 0 1 .039.043l.503.742a1.118 1.118 0 0 1 .089.17l.037-.082a.63.63 0 0 1 .05-.087l.496-.747a.202.202 0 0 1 .037-.04.095.095 0 0 1 .057-.019h.269l-.805 1.155zM24.923 21.47c.126.014.254.025.384.035 1.962-.763 3.622-2.011 4.772-3.588s1.739-3.415 1.694-5.282l-2.162-1.878c.439 1.988.234 4.043-.594 5.935s-2.245 3.547-4.094 4.779z"/><path fill="#afb1b8" style="fill:var(--color3, #afb1b8)" d="m24.151 21.382.058.011c1.975-1.228 3.481-2.942 4.323-4.922s.981-4.133.4-6.181l-3.08-2.676c1.245 2.199 1.747 4.661 1.445 7.099-.301 2.437-1.392 4.75-3.147 6.669zm10.445-6.541c-.523 2.052-1.794 3.902-3.623 5.276-.5.38-1.064.737-1.658 1.043l-.065.03c1.49-.38 2.859-1.053 4.003-1.966s2.03-2.042 2.592-3.3l-1.249-1.084z"/><path fill="#afb1b8" style="fill:var(--color3, #afb1b8)" d="m34.106 14.539-1.778-1.545c-.034 1.762-.611 3.483-1.669 4.986s-2.562 2.732-4.352 3.559h.009c.399 0 .797-.021 1.194-.062 1.673-.594 3.151-1.538 4.302-2.748s1.94-2.65 2.295-4.189zm-9.697-8.054L22.287 4.64c-1.897.637-3.527 1.756-4.68 3.212s-1.772 3.179-1.778 4.946c.007 1.952.763 3.846 2.149 5.383 1.385 1.536 3.321 2.628 5.501 3.101 1.946-2.06 3.085-4.605 3.252-7.266s-.647-5.299-2.323-7.531zm14.599 7.769c-.007-2.316-1.07-4.535-2.955-6.173s-4.439-2.561-7.105-2.567h-.021a11.28 11.28 0 0 0-3.66.606l.079-.024 12.989 11.286a7.537 7.537 0 0 0 .672-3.128z"/></symbol><symbol id="icon-client-41" viewBox="0 0 57 32"><path fill="#afb1b8" style="fill:var(--color3, #afb1b8)" d="M12.878 11.255h-.002c-1.279 0-2.316.921-2.316 2.058v.002c0 1.137 1.037 2.058 2.316 2.058h.002c1.279 0 2.316-.922 2.316-2.058v-.001c0-1.137-1.037-2.059-2.316-2.059zm17.093-.658c-.004-1.579-.711-3.092-1.967-4.209s-2.958-1.745-4.734-1.749c-1.777.003-3.481.631-4.737 1.748s-1.964 2.63-1.968 4.209v8.706s13.405-1.327 13.406-8.704v-.002zM5.867 22.16c.003 1.099.496 2.151 1.37 2.928s2.058 1.214 3.294 1.218c1.236-.003 2.42-.441 3.294-1.218s1.366-1.829 1.37-2.927v-6.058s-9.327.924-9.327 6.057zm4.663 1.085c-.242 0-.477-.063-.678-.183a1.136 1.136 0 0 1-.447-.48l-.003-.007a.951.951 0 0 1-.068-.634l-.001.007c.047-.211.163-.404.334-.556s.388-.255.625-.297a1.363 1.363 0 0 1 .715.064l-.009-.003c.223.082.414.221.548.4s.206.388.206.603a.963.963 0 0 1-.092.417 1.095 1.095 0 0 1-.263.352l-.001.001a1.323 1.323 0 0 1-.864.319h-.001v-.004zm9.426-.598h-.9v.93h-.469v-2.276h1.482v.38h-1.013v.588h.9v.378zm2.253-.156c0 .224-.039.42-.118.589a.893.893 0 0 1-.83.529h-.018.001a.943.943 0 0 1-.505-.136.917.917 0 0 1-.341-.382l-.002-.006a1.319 1.319 0 0 1-.123-.561v-.021.001-.112c0-.224.04-.421.12-.591a.895.895 0 0 1 .342-.392c.148-.092.316-.138.506-.138s.357.046.505.138a.888.888 0 0 1 .342.392c.081.17.122.366.122.589v.101zm-.475-.103c0-.238-.043-.42-.128-.544a.417.417 0 0 0-.348-.186h-.019.001-.018a.419.419 0 0 0-.346.183l-.001.001c-.085.122-.129.301-.13.538v.111c0 .232.043.412.128.54s.208.192.369.192h.018a.413.413 0 0 0 .343-.183l.001-.001c.084-.124.127-.304.128-.541v-.111zm1.995.592v-.013a.24.24 0 0 0-.093-.189h-.001a1.185 1.185 0 0 0-.338-.15c-.15-.047-.278-.1-.399-.163l.014.006c-.259-.14-.388-.328-.388-.564 0-.123.034-.233.103-.328a.691.691 0 0 1 .299-.227 1.13 1.13 0 0 1 .437-.081c.163 0 .307.029.435.089a.677.677 0 0 1 .295.249.646.646 0 0 1 .107.365h-.469c0-.104-.032-.185-.098-.242a.4.4 0 0 0-.276-.087.426.426 0 0 0-.267.074.228.228 0 0 0-.096.185v.006c0 .074.037.136.111.186.075.05.185.097.33.14.267.08.461.18.583.299s.183.267.183.444c0 .197-.075.352-.224.464s-.349.167-.601.167c-.175 0-.334-.032-.478-.096a.77.77 0 0 1-.328-.261l-.002-.002a.672.672 0 0 1-.112-.373v-.015.001h.47c0 .251.15.377.45.377a.442.442 0 0 0 .261-.067.223.223 0 0 0 .093-.182v-.009zm2.502-1.298h-.697v1.895h-.469v-1.895h-.686v-.38h1.853v.38zm1.637.909h-.9v.61h1.056v.377h-1.525v-2.276h1.522v.38h-1.053v.542h.9v.367zm1.274.153h-.373v.833H28.3v-2.276h.845c.269 0 .476.06.622.18s.219.289.219.508a.705.705 0 0 1-.101.389.69.69 0 0 1-.3.245l-.005.002.492.93v.021h-.503l-.427-.832zm-.373-.38h.379a.387.387 0 0 0 .273-.089.323.323 0 0 0 .097-.231v-.018.001c0-.108-.03-.192-.092-.253s-.154-.092-.28-.092h-.377v.683zm2.84.411v.802h-.469v-2.276h.887c.171 0 .321.031.45.094.13.062.23.151.3.267a.746.746 0 0 1 .105.392.657.657 0 0 1-.229.528c-.153.128-.363.193-.633.193h-.411zm0-.379h.419c.124 0 .219-.029.283-.087a.317.317 0 0 0 .099-.25v-.017a.372.372 0 0 0-.099-.254.37.37 0 0 0-.272-.106h-.43v.715zm2.965.195h-.9v.61h1.056v.377h-1.525v-2.276h1.522v.38h-1.053v.542h.9v.367zm2.176-.909h-.697v1.895h-.469v-1.895h-.687v-.38h1.853v.38zm1.637.909h-.899v.61h1.056v.377h-1.525v-2.276h1.522v.38h-1.053v.542h.9v.367zm1.274.153h-.373v.833h-.469v-2.276h.846c.269 0 .476.06.622.18s.219.289.219.508a.705.705 0 0 1-.101.389.687.687 0 0 1-.301.245l-.005.002.492.93v.021h-.503l-.427-.832zm-.374-.38h.378c.117 0 .209-.029.273-.089a.324.324 0 0 0 .097-.232v-.018.001a.338.338 0 0 0-.092-.253c-.06-.061-.154-.092-.279-.092h-.377v.683zm2.755.616v-.013a.237.237 0 0 0-.094-.189h-.001a1.185 1.185 0 0 0-.338-.15c-.15-.047-.278-.1-.399-.163l.014.006c-.259-.14-.388-.328-.388-.564 0-.123.035-.233.103-.328a.691.691 0 0 1 .299-.227 1.13 1.13 0 0 1 .437-.081c.163 0 .307.029.435.089a.677.677 0 0 1 .295.249.646.646 0 0 1 .107.365h-.469c0-.104-.032-.185-.098-.242a.4.4 0 0 0-.276-.087.426.426 0 0 0-.267.074.229.229 0 0 0-.096.186v.005c0 .074.037.136.111.186s.185.097.33.14c.267.08.461.18.583.299s.183.267.183.444c0 .197-.075.352-.224.464s-.349.167-.601.167c-.175 0-.334-.032-.478-.096a.77.77 0 0 1-.328-.261l-.002-.002a.672.672 0 0 1-.112-.373v-.015.001h.47c0 .251.15.377.45.377a.442.442 0 0 0 .261-.067.224.224 0 0 0 .094-.182v-.009z"/></symbol><symbol id="icon-client-51" viewBox="0 0 57 32"><path fill="#afb1b8" style="fill:var(--color3, #afb1b8)" d="M14.27 23.859a.768.768 0 0 1 .197.56.756.756 0 0 1-.073.326l.002-.005a.83.83 0 0 1-.232.296l-.002.001a1.39 1.39 0 0 1-.885.24h.004-1.549v-3.301h1.517a1.377 1.377 0 0 1 .846.222l-.005-.003a.782.782 0 0 1 .227.277.71.71 0 0 1 .068.341.722.722 0 0 1-.176.505.842.842 0 0 1-.462.258.893.893 0 0 1 .523.283zm-1.816-.498h.649a.655.655 0 0 0 .412-.11.386.386 0 0 0 .109-.144l.001-.003a.358.358 0 0 0 .03-.145l-.001-.033v.001l.001-.028a.376.376 0 0 0-.031-.15l.001.002a.399.399 0 0 0-.108-.147h-.001a.665.665 0 0 0-.373-.113l-.054.002h.002-.638v.867zm1.124 1.266a.407.407 0 0 0 .118-.149l.001-.003a.37.37 0 0 0 .034-.158l-.001-.027v.001l.001-.024a.38.38 0 0 0-.037-.165l.001.002a.41.41 0 0 0-.121-.151l-.001-.001a.705.705 0 0 0-.397-.121l-.045.001h.002-.68v.908h.689a.727.727 0 0 0 .435-.115zm3.793.651-.843-1.291h-.317v1.291h-.726v-3.302h1.374a1.433 1.433 0 0 1 .96.284l-.004-.003a1.016 1.016 0 0 1 .329.735.99.99 0 0 1-.228.633l.001-.002a1.152 1.152 0 0 1-.649.335l-.006.001.899 1.319h-.789zm-1.161-1.74h.594c.412 0 .619-.166.619-.5l.001-.027a.464.464 0 0 0-.035-.176l.001.003a.494.494 0 0 0-.118-.171.68.68 0 0 0-.47-.133h.003-.601l.007 1.005zm5.129 1.075h-1.446l-.255.665h-.761l1.328-3.265h.823l1.323 3.265h-.761l-.25-.665zm-.194-.499-.529-1.394-.529 1.394h1.057zm5.16 1.164h-.72l-1.616-2.245v2.245h-.719v-3.302h.719l1.616 2.259v-2.259h.72v3.302zm4.113-.79a1.501 1.501 0 0 1-.652.582c-.28.132-.608.209-.955.209l-.062-.001h.003-1.282v-3.302h1.283l.06-.001c.345 0 .673.075.968.209l-.015-.006c.276.128.503.329.652.576a1.78 1.78 0 0 1 0 1.733zm-.825-.079c.196-.205.317-.482.318-.788 0-.289-.113-.569-.318-.788a1.317 1.317 0 0 0-.906-.281h.004-.5v2.138h.5a1.323 1.323 0 0 0 .905-.282l-.003.002zm-7.803-20.8s9.3 3.215 9.103 7.867v7.869s-9.294-3.216-9.1-7.869l-.003-7.867zm17.389 13.894a13.494 13.494 0 0 1 5.909-1.994v-2.464c-2.444.863-4.517 2.427-5.909 4.458z"/><path fill="#afb1b8" style="fill:var(--color3, #afb1b8)" d="M38.124 18.245c1.437-2.651 3.93-4.696 6.964-5.716V5.431s-13.245 4.58-12.965 11.205v11.203s.59-.205 1.519-.589c0-.358 0-.719.043-1.083.274-3.075 1.87-5.925 4.439-7.924z"/><path fill="#afb1b8" style="fill:var(--color3, #afb1b8)" d="M36.864 22.407c.069-.777.225-1.546.463-2.294-1.599 1.725-2.568 3.867-2.769 6.122-.02.213-.03.426-.036.645a36.805 36.805 0 0 0 2.761-1.334l-.214.105a10.624 10.624 0 0 1-.206-3.244zm.527.04a10.167 10.167 0 0 0 .175 3.003l-.012-.066c3.619-1.983 7.685-5.046 7.528-8.748v-.323c-2.586.265-5.004 1.3-6.885 2.946a10.02 10.02 0 0 0-.804 3.148l-.003.04z"/></symbol><symbol id="icon-client-61" viewBox="0 0 57 32"><path fill="#afb1b8" style="fill:var(--color3, #afb1b8)" d="M28.493 14.618a1.563 1.563 0 0 1-.322-1.065v.005-1.538c0-.471.107-.829.321-1.075.213-.245.581-.367 1.101-.366.489 0 .837.105 1.042.313.224.266.333.591.308.919v.362h-.875v-.366a1.799 1.799 0 0 0-.026-.358.34.34 0 0 0-.125-.212l-.001-.001a.499.499 0 0 0-.279-.084l-.039.001h.002l-.038-.001a.53.53 0 0 0-.297.09l.002-.001a.415.415 0 0 0-.145.232v.003a1.74 1.74 0 0 0-.035.351v.031-.002 1.866c-.014.18.025.36.112.524.045.056.104.1.172.126l.003.001a.48.48 0 0 0 .228.029H29.6a.47.47 0 0 0 .311-.086l-.002.001a.37.37 0 0 0 .13-.224v-.002c.02-.124.03-.249.027-.374v-.379h.875v.346a1.397 1.397 0 0 1-.305.969l.002-.003c-.201.228-.544.342-1.047.342s-.884-.122-1.1-.375zm3.644.016c-.221-.24-.332-.588-.332-1.05v-1.618c0-.457.11-.803.332-1.037s.59-.351 1.109-.35c.515 0 .882.117 1.103.35.221.235.333.58.333 1.037v1.617c0 .457-.112.807-.337 1.049s-.59.361-1.1.361-.886-.122-1.109-.359zm1.516-.389a.902.902 0 0 0 .105-.478v-1.981a.872.872 0 0 0-.105-.474l.002.005a.425.425 0 0 0-.176-.128l-.003-.001a.473.473 0 0 0-.233-.027h.002a.49.49 0 0 0-.235.028l.003-.001a.416.416 0 0 0-.179.128l-.001.001a.855.855 0 0 0-.105.469v1.99a.888.888 0 0 0 .105.479.605.605 0 0 0 .639.116l-.004.001a.563.563 0 0 0 .185-.118v-.01zm2.082-3.619h.942l.708 2.984.725-2.984h.916l.093 4.307h-.678l-.073-2.994-.699 2.994h-.544l-.724-3.005-.067 3.005h-.685l.085-4.307zm4.441 0h1.468c.845 0 1.268.407 1.268 1.223 0 .781-.445 1.171-1.335 1.17h-.5v1.914h-.906l.005-4.308zm1.254 1.841a.707.707 0 0 0 .498-.136.699.699 0 0 0 .131-.486 1.325 1.325 0 0 0-.046-.4l.002.009a.317.317 0 0 0-.067-.119.386.386 0 0 0-.112-.085l-.002-.001a.913.913 0 0 0-.357-.071l-.05.001h.002-.351v1.287h.352zm2.789-1.841h.973l.998 4.307h-.845l-.197-.993h-.868l-.203.993h-.857l.998-4.307zm.831 2.816-.339-1.808-.339 1.808h.677zm1.946-2.816h.635l1.213 2.457v-2.457h.752v4.307h-.603l-1.221-2.565v2.565h-.777l.002-4.307zm4.361 2.665-1.009-2.659h.85l.616 1.708.578-1.708h.832l-.997 2.659v1.642h-.869V13.29zm-21.465 3.526v.225h-.739v1.75h-.31v-1.75H28.1v-.225h1.792zm2.318 1.976h-.246a.105.105 0 0 1-.061-.019.1.1 0 0 1-.039-.045v-.001l-.214-.469h-1.026l-.213.469a.126.126 0 0 1-.033.053.108.108 0 0 1-.062.019h-.245l.906-1.975h.315l.917 1.968zm-1.501-.734h.855l-.363-.804a1.278 1.278 0 0 1-.064-.176l-.003-.01-.034.105-.033.083-.358.803zm3.062.539a1.018 1.018 0 0 0 .316-.023 1.018 1.018 0 0 0 .252-.085v-.444h-.365a.076.076 0 0 1-.046-.016c-.006-.004-.01-.01-.014-.016a.034.034 0 0 1-.004-.018v-.153h.703v.757c-.11.068-.237.123-.372.158l-.01.002c-.075.019-.15.033-.227.041a2.598 2.598 0 0 1-.265.012h-.011c-.159 0-.312-.027-.455-.077l.01.003a1.123 1.123 0 0 1-.364-.208l.002.001a.952.952 0 0 1-.231-.307l-.002-.006a.965.965 0 0 1-.083-.397v-.013.001-.012c0-.145.03-.283.084-.407l-.003.007a.907.907 0 0 1 .234-.313c.103-.089.227-.158.363-.205.155-.051.32-.076.485-.074.084 0 .169.005.252.017.074.011.146.027.215.05.064.02.124.047.181.078.055.031.108.065.158.103l-.087.122a.073.073 0 0 1-.029.026.093.093 0 0 1-.042.011.111.111 0 0 1-.057-.016h.001a.892.892 0 0 1-.094-.05l.005.003a.814.814 0 0 0-.115-.052l-.006-.002a1.027 1.027 0 0 0-.16-.043l-.007-.001a1.34 1.34 0 0 0-.218-.017h-.013.001-.011c-.121 0-.238.02-.346.057l.008-.002a.774.774 0 0 0-.267.156.672.672 0 0 0-.166.241l-.002.005a.917.917 0 0 0 .002.665l-.002-.006a.76.76 0 0 0 .445.405c.115.034.237.047.359.039zm2.888-.031h.989v.225h-1.291v-1.975h.309l-.007 1.75zm2.018.226h-.309v-1.975h.309v1.975zm1.153-1.966a.14.14 0 0 1 .047.036l1.324 1.489-.001-.035.001-.037v.002-1.472h.27v1.984h-.166a.14.14 0 0 1-.058-.012h.001a.162.162 0 0 1-.048-.037l-1.323-1.488v1.536h-.259v-1.975h.161c.018 0 .035.003.051.009zm3.923-.01v.217h-1.098v.652h.89v.21h-.89v.674h1.098v.218h-1.417v-1.971h1.417zm-32.467-12.2 13.757 3.372v11.818l-13.757-3.371V4.616zm-.882-1.008V17.01l15.52 3.806V7.417L10.404 3.61z"/><path fill="#afb1b8" style="fill:var(--color3, #afb1b8)" d="M18.722 27.036 3.2 23.227V9.828l15.522 3.807v13.401z"/><path fill="#afb1b8" style="fill:var(--color3, #afb1b8)" d="m10.661 4.465 13.578 3.33-5.774 4.987L4.886 9.45l5.776-4.986zm-.257-.856L3.2 9.828l15.522 3.808 7.202-6.22-15.52-3.807zm9.191 22.673 6.329-5.466-6.33-1.552v7.019z"/></symbol><symbol id="icon-clock1" viewBox="0 0 32 32"><path fill="#212121" style="fill:var(--color1, #212121)" d="M31.296 15.301C31.295 6.849 24.441-.002 15.988 0S.685 6.855.687 15.308c.002 6.788 4.422 12.543 10.541 14.545l.108.031a.667.667 0 0 0 .529-.065.636.636 0 0 0 .283-.357l3.865-12.25a1.913 1.913 0 1 0-.852-3.63l.011-.005-5.106-5.107a.638.638 0 0 0-.902.902l5.103 5.109a1.847 1.847 0 0 0-.191.826c0 .602.283 1.137.723 1.48l.004.003-3.682 11.673C3.843 25.782.117 17.709 2.797 10.431S13.551-.573 20.829 2.108c7.278 2.681 11.004 10.754 8.323 18.032-1.345 3.581-4.003 6.406-7.374 7.938l-.088.036-.398-1.874a.639.639 0 0 0-1.05-.343l.001-.001-3.837 3.426a.637.637 0 0 0 .227 1.083l.005.001 4.899 1.563a.637.637 0 0 0 .818-.744l.001.004-.391-1.839c5.528-2.374 9.329-7.772 9.329-14.057v-.034.002zm-15.304-.637a.638.638 0 0 1 0 1.276.638.638 0 0 1 0-1.276zm2.1 14.864 2.184-1.948.603 2.84-2.787-.892z"/><path fill="#2196f3" style="fill:var(--color2, #2196f3)" d="M15.354 3.185V4.46a.638.638 0 0 0 1.276 0V3.185a.638.638 0 1 0-1.276 0zM3.876 14.664a.638.638 0 0 0 0 1.276h1.275a.638.638 0 0 0 0-1.276H3.876zm24.232 1.275a.638.638 0 0 0 0-1.276h-1.275a.638.638 0 0 0 0 1.276h1.275z"/></symbol><symbol id="icon-diagram1" viewBox="0 0 32 32"><path fill="#2196f3" style="fill:var(--color2, #2196f3)" d="M14.926 14.965h1.066v4.798h-1.066v-4.798zm4.264 2.132h1.066v2.665H19.19v-2.665zm-8.529 1.599h1.066v1.066h-1.066v-1.066zm-3.198-.533h1.066v1.599H7.463v-1.599z"/><path fill="#212121" style="fill:var(--color1, #212121)" d="M1.599 28.291h25.586a1.6 1.6 0 0 0 1.599-1.599V24.56a1.6 1.6 0 0 0-1.599-1.599h-.533V9.667l3.028-2.868a1.608 1.608 0 1 0-.742-.752l-.004-.01-2.281 2.162v-1.23a1.6 1.6 0 0 0-1.599-1.599H3.731a1.6 1.6 0 0 0-1.599 1.599v15.992h-.533A1.6 1.6 0 0 0 0 24.56v2.132a1.6 1.6 0 0 0 1.599 1.599zM30.384 4.837a.533.533 0 0 1 0 1.066.533.533 0 0 1 0-1.066zM3.198 6.969c0-.294.239-.533.533-.533h21.323c.294 0 .533.239.533.533v2.239l-1.066 1.013V8.036a.534.534 0 0 0-.534-.534H4.798a.534.534 0 0 0-.534.533v13.327c0 .294.239.533.534.533h19.189a.534.534 0 0 0 .534-.533v-9.675l1.066-1.01V22.96H3.198V6.969zm4.798 6.93h-.005a1.6 1.6 0 1 0 1.112 2.748l1.853.93a.535.535 0 0 0 .636-.122l3.939-4.432 3.872 2.902a.534.534 0 0 0 .686-.039l3.365-3.188v8.131H5.331V8.568h18.123v2.661l-3.771 3.572-3.904-2.927a.534.534 0 0 0-.718.071v.001l-3.993 4.493-1.493-.746c.011-.064.017-.128.02-.193a1.6 1.6 0 0 0-1.599-1.599zm.533 1.599a.533.533 0 0 1-1.066 0 .533.533 0 0 1 1.066 0zm3.198 8.528h5.33v.533a.533.533 0 0 1-.533.533h-4.265a.533.533 0 0 1-.533-.533v-.533zm-10.66.534c0-.294.238-.533.533-.533h9.062v.533a1.6 1.6 0 0 0 1.599 1.599h4.265a1.6 1.6 0 0 0 1.599-1.599v-.533h9.062c.294 0 .533.239.533.533v2.132a.533.533 0 0 1-.533.533H1.601a.533.533 0 0 1-.533-.533V24.56z"/></symbol><symbol id="icon-envelope1" viewBox="0 0 43 32"><path fill="#757575" style="fill:var(--color4, #757575)" d="M38.667 0H4C1.795 0 0 1.795 0 4v24c0 2.205 1.795 4 4 4h34.667c2.205 0 4-1.795 4-4V4c0-2.205-1.795-4-4-4zm0 2.667c.181 0 .355.037.512.104L21.334 18.238 3.489 2.771c.151-.065.327-.104.512-.104h34.667zm0 26.666H4A1.333 1.333 0 0 1 2.667 28V5.587l17.792 15.421c.233.203.539.327.875.327s.642-.124.876-.328l-.002.001L40 5.587V28c0 .736-.597 1.333-1.333 1.333z"/></symbol><symbol id="icon-fb1" viewBox="0 0 32 32"><path fill="#fff" style="fill:var(--color5, #fff)" d="M32 16v.02a15.9 15.9 0 0 1-4.686 11.293A15.902 15.902 0 0 1 16.021 32H16h.001-.02a15.9 15.9 0 0 1-11.293-4.686A15.902 15.902 0 0 1 .001 16.021V16v.001-.02A15.9 15.9 0 0 1 4.687 4.688 15.902 15.902 0 0 1 15.98.001h.021H16h.02a15.9 15.9 0 0 1 11.293 4.686A15.902 15.902 0 0 1 32 15.98v.021V16z"/><path fill="#afb1b8" style="fill:var(--color3, #afb1b8)" d="M18.422 11.142h1.329V8.829c-.56-.065-1.21-.102-1.868-.102h-.071.004c-1.915 0-3.226 1.204-3.226 3.418v2.036h-2.113v2.585h2.113v6.505h2.59v-6.505h2.028l.321-2.585H17.18v-1.782c0-.747.201-1.258 1.243-1.258z"/></symbol><symbol id="icon-instagram1" viewBox="0 0 32 32"><path fill="#fff" style="fill:var(--color5, #fff)" d="M32 16v.02a15.9 15.9 0 0 1-4.686 11.293A15.902 15.902 0 0 1 16.021 32H16h.001-.02a15.9 15.9 0 0 1-11.293-4.686A15.902 15.902 0 0 1 .001 16.021V16v.001-.02A15.9 15.9 0 0 1 4.687 4.688 15.902 15.902 0 0 1 15.98.001h.021H16h.02a15.9 15.9 0 0 1 11.293 4.686A15.902 15.902 0 0 1 32 15.98v.021V16z"/><path fill="#afb1b8" style="fill:var(--color3, #afb1b8)" d="M23.258 13.004c-.033-.773-.159-1.304-.337-1.764a3.57 3.57 0 0 0-.841-1.29l-.001-.001a3.583 3.583 0 0 0-1.263-.83l-.024-.008c-.463-.179-.991-.304-1.764-.337-.778-.037-1.025-.046-3.001-.046s-2.222.009-2.998.043c-.773.033-1.304.159-1.764.338a3.58 3.58 0 0 0-1.29.84l-.001.001c-.36.354-.645.784-.83 1.263l-.008.024c-.18.463-.304.991-.338 1.764-.037.778-.046 1.025-.046 3.001s.009 2.222.043 2.998c.034.773.159 1.304.338 1.764.194.505.48.935.84 1.29h.001c.364.369.804.656 1.287.838.463.18.992.305 1.764.338.776.034 1.023.043 2.998.043s2.222-.009 2.998-.043c.773-.033 1.304-.159 1.764-.337a3.741 3.741 0 0 0 2.12-2.104l.009-.025c.179-.463.304-.992.338-1.764.034-.776.042-1.023.042-2.998s-.003-2.222-.036-2.998zm-1.309 5.939c-.032.711-.151 1.094-.25 1.349a2.428 2.428 0 0 1-1.365 1.376l-.016.006c-.255.099-.641.218-1.349.249-.767.034-.997.043-2.938.043s-2.174-.009-2.938-.043c-.711-.031-1.094-.151-1.35-.25a2.237 2.237 0 0 1-.834-.542l-.001-.001a2.268 2.268 0 0 1-.538-.819l-.005-.016c-.099-.256-.218-.642-.249-1.35-.034-.767-.043-.998-.043-2.938s.009-2.175.043-2.938c.031-.711.151-1.094.249-1.35.122-.328.308-.608.545-.835l.001-.001c.229-.235.509-.42.821-.537l.016-.005c.255-.099.641-.218 1.349-.25.767-.033.998-.042 2.938-.042 1.943 0 2.174.008 2.938.042.711.031 1.094.151 1.35.25.315.116.602.301.835.543.241.236.426.52.543.836.099.255.218.641.249 1.349.034.767.043.997.043 2.938s-.009 2.167-.043 2.935z"/><path fill="#afb1b8" style="fill:var(--color3, #afb1b8)" d="M16.027 12.265h-.001a3.737 3.737 0 1 0 3.737 3.737v-.001a3.737 3.737 0 0 0-3.737-3.737zm0 6.16a2.424 2.424 0 1 1 0-4.848 2.424 2.424 0 1 1 0 4.848zm4.757-6.308a.873.873 0 0 1-1.746 0 .873.873 0 0 1 1.746 0z"/></symbol><symbol id="icon-linkedin1" viewBox="0 0 32 32"><path fill="#fff" style="fill:var(--color5, #fff)" d="M32 16v.02a15.9 15.9 0 0 1-4.686 11.293A15.902 15.902 0 0 1 16.021 32H16h.001-.02a15.9 15.9 0 0 1-11.293-4.686A15.902 15.902 0 0 1 .001 16.021V16v.001-.02A15.9 15.9 0 0 1 4.687 4.688 15.902 15.902 0 0 1 15.98.001h.021H16h.02a15.9 15.9 0 0 1 11.293 4.686A15.902 15.902 0 0 1 32 15.98v.021V16z"/><path fill="#afb1b8" style="fill:var(--color3, #afb1b8)" d="M23.269 23.273h.004v-5.335c0-2.609-.562-4.62-3.613-4.62-1.466 0-2.451.804-2.852 1.567h-.042v-1.324h-2.893v9.711h3.012v-4.808c0-1.266.24-2.491 1.808-2.491 1.545 0 1.567 1.445 1.567 2.572v4.728h3.009zM8.967 13.562h3.016v9.711H8.967v-9.711zm1.507-4.835c-.965 0-1.747.782-1.747 1.747 0 .964.783 1.763 1.747 1.763s1.746-.799 1.746-1.763c0-.964-.782-1.746-1.746-1.747z"/></symbol><symbol id="icon-smartphone1" viewBox="0 0 20 32"><path fill="#757575" style="fill:var(--color4, #757575)" d="M17 0H3C1.346 0 0 1.346 0 3v26c0 1.654 1.346 3 3 3h14c1.654 0 3-1.346 3-3V3c0-1.654-1.346-3-3-3zM3 2h14a1 1 0 0 1 1 1v21H2V3a1 1 0 0 1 1-1zm14 28H3a1 1 0 0 1-1-1v-3h16v3a1 1 0 0 1-1 1z"/><path fill="#757575" style="fill:var(--color4, #757575)" d="M4.708 27.478a.889.889 0 0 1 .001 1.319l-.001.001a1.048 1.048 0 0 1-1.417 0l.001.001a.889.889 0 0 1-.001-1.319l.001-.001a1.048 1.048 0 0 1 1.417 0l-.001-.001z"/></symbol><symbol id="icon-twitter1" viewBox="0 0 32 32"><path fill="#fff" style="fill:var(--color5, #fff)" d="M32 16v.02a15.9 15.9 0 0 1-4.686 11.293A15.902 15.902 0 0 1 16.021 32H16h.001-.02a15.9 15.9 0 0 1-11.293-4.686A15.902 15.902 0 0 1 .001 16.021V16v.001-.02A15.9 15.9 0 0 1 4.687 4.688 15.902 15.902 0 0 1 15.98.001h.021H16h.02a15.9 15.9 0 0 1 11.293 4.686A15.902 15.902 0 0 1 32 15.98v.021V16z"/><path fill="#afb1b8" style="fill:var(--color3, #afb1b8)" d="M23.273 11.49c-.5.224-1.08.39-1.688.467l-.031.003a2.98 2.98 0 0 0 1.306-1.627l.006-.021a5.851 5.851 0 0 1-1.853.715l-.038.006a2.981 2.981 0 0 0-5.158 2.036v.003c0 .236.02.464.07.68a8.443 8.443 0 0 1-6.147-3.119 2.984 2.984 0 0 0 .917 3.986 2.937 2.937 0 0 1-1.362-.375l.015.008v.033a2.995 2.995 0 0 0 2.37 2.927l.02.003a2.906 2.906 0 0 1-.756.098h-.028.001-.047c-.183 0-.362-.019-.534-.054l.017.003a3.012 3.012 0 0 0 2.786 2.078 5.948 5.948 0 0 1-3.69 1.271h-.047c-.238 0-.472-.015-.701-.044l.027.003a8.317 8.317 0 0 0 4.547 1.338h.029-.002c5.487 0 8.487-4.545 8.487-8.486 0-.131-.004-.259-.011-.385a5.978 5.978 0 0 0 1.481-1.526l.014-.021z"/></symbol></defs></svg>